<?xml version="1.0" encoding="UTF-8"?>
<svg id="Layer_2" data-name="Layer 2" xmlns="http://www.w3.org/2000/svg" viewBox="0 0 2135.78 616.53">
  <defs>
    <style>
      .cls-1 {
        fill: #7fc902;
      }

      .cls-2 {
        fill: #58595b;
      }

      .cls-3 {
        fill: #414042;
      }
    </style>
  </defs>
  <g id="Layer_1-2" data-name="Layer 1">
    <g>
      <circle class="cls-3" cx="147.72" cy="305.34" r="31.12"/>
      <g>
        <path class="cls-1" d="m178.23,50.4c46.93,37.01,64.47,76.36,53.64,120.31-1.5,6.1,2.22,12.26,8.32,13.77.91.23,1.83.33,2.73.33,5.11,0,9.76-3.47,11.04-8.66,6.36-25.81,4.67-50.79-5.03-74.25-10.07-24.35-29.12-47.69-56.6-69.37-4.93-3.89-12.09-3.05-15.98,1.89-3.89,4.93-3.05,12.09,1.89,15.98Z"/>
        <path class="cls-1" d="m431.06,14.11c-68.05-62.01-164.59,100.51-164.59,100.51,63.58,23.75,232.64-38.5,164.59-100.51Z"/>
        <g>
          <path class="cls-1" d="m93.04,305.79c0,30.79,24.96,55.75,55.75,55.75s55.75-24.96,55.75-55.75-24.96-55.75-55.75-55.75-55.75,24.96-55.75,55.75Zm86.12,0c0,16.77-13.6,30.37-30.37,30.37s-30.37-13.6-30.37-30.37,13.6-30.37,30.37-30.37,30.37,13.6,30.37,30.37Z"/>
          <path class="cls-1" d="m457.73,240.77l-.42-.69-.48-.65c-40.7-55.35-88.73-66.97-121.85-66.97-37.95,0-70.28,14.49-90.57,26.52-20.29-12.03-52.62-26.52-90.57-26.52-33.12,0-81.14,11.62-121.85,66.97l-.48.65-.42.69C8.06,278.45-2.27,321.05.41,367.41c1.61,27.88,8.06,56.31,18.89,83.83,17.14,3.95,48.75,12.97,66.74,28.92,0,0,43.96-72.36,109.95-7.23,0,0,7.72,2.89,6.27-17.84-1.22-17.43,1.66-52.93-1.12-74.11-14.84,10.35-32.88,16.42-52.34,16.42-50.59,0-91.61-41.01-91.61-91.61s41.01-91.61,91.61-91.61,91.61,41.01,91.61,91.61c0,10.05-1.62,19.72-4.61,28.76,16.08,14.14,46.02,44.67,68.22,92.09,31.83,67.99,17.84,107.54-2.41,122.97-17.56,13.38-66.67,44.89-108.65,64.66,8.27,1.49,16.54,2.27,24.73,2.27h53.5c66.17,0,137.06-50.19,180.6-127.85,21.62-38.58,34.3-80.51,36.66-121.26,2.68-46.36-7.65-88.97-30.7-126.65Z"/>
        </g>
      </g>
      <g>
        <g>
          <path class="cls-2" d="m846.56,572.63h-25.41v-92.59h25.41c36.02,0,49.69,12.59,49.69,45.94s-14.47,46.65-49.69,46.65Zm0-84.43h-13.67v76.28h15.11c24.44,0,36.02-11.59,36.02-38.35,0-28.91-10.45-37.92-37.47-37.92Z"/>
          <path class="cls-2" d="m950.91,516.67c-2.57-2-7.24-3.72-11.58-3.72-8.84,0-13.83,13.02-16.08,17.17v42.5h-10.45v-50.8c0-6.44-1.13-11.31-1.45-14.6h9.17l2.25,13.31c2.73-4.72,9.81-14.88,18.65-14.88,6.11,0,10.61,1.72,13.19,3.15l-3.7,7.87Z"/>
          <path class="cls-2" d="m960.08,574.06h-9.97l34.41-95.6h9.81l-34.25,95.6Z"/>
          <path class="cls-2" d="m1094.98,572.63l-34.25-41.36h-10.93v41.36h-11.74v-92.59h32.48c16.56,0,33.12,5.58,33.12,24.9,0,13.45-6.91,25.19-29.26,26.05l35.05,41.64h-14.47Zm-23.64-84.43h-21.55v34.92h21.71c15.11,0,20.1-7.87,20.1-18.17,0-10.88-7.24-16.74-20.26-16.74Z"/>
          <path class="cls-2" d="m1169.43,572.63c-.16-1-2.57-6.3-2.73-7.73-3.7,4.72-11.26,9.3-20.58,9.3-14.79,0-26.69-5.58-26.69-18.75s8.2-22.61,39.4-22.61h7.08v-5.01c0-8.73-3.38-14.88-14.63-14.88-10.13,0-18.17,2.72-25.08,5.72l-3.7-8.01c8.52-2.86,17.85-5.01,28.94-5.01,15.11,0,25.08,6.73,25.08,21.04v25.9c0,5.15,1.29,12.02,2.25,20.04h-9.33Zm-3.38-32.77h-4.98c-23.15,0-30.55,4.72-30.55,15.31,0,7.3,6.11,11.74,16.72,11.74,8.52,0,15.44-3.43,18.81-8.73v-18.32Z"/>
          <path class="cls-2" d="m1286.17,572.63v-41.5c0-9.73-2.57-18.17-16.08-18.17-9.33,0-16.56,7.87-19.3,14.6v45.08h-10.45v-41.5c0-11.88-5.15-18.17-15.92-18.17-9,0-16.24,8.01-18.65,13.74v45.94h-10.45v-50.37c0-5.44-.96-10.16-1.45-15.03h9.17l2.41,9.73c3.06-4.01,10.77-11.31,20.58-11.31,13.19,0,18.65,5.44,22.51,13.02,4.18-6.01,12.06-13.02,22.67-13.02,16.88,0,25.41,7.73,25.41,25.19v41.79h-10.45Z"/>
          <path class="cls-2" d="m1344.05,583.08c-4.18,10.16-9.17,15.31-22.35,19.46l-3.38-8.16c8.84-2.15,12.54-5.44,14.15-9.3l6.43-15.17-29.43-62.68h11.26l23.48,51.95,19.94-51.95h10.61l-30.71,75.85Z"/>
          <path class="cls-2" d="m1518.36,572.63v-81.29l-35.54,81.29h-9.65l-35.86-81.29v81.29h-10.77v-92.59h18.01l33.93,77.99,34.25-77.99h17.04v92.59h-11.42Z"/>
          <path class="cls-2" d="m1598.27,572.63c-.16-1-2.57-6.3-2.73-7.73-3.7,4.72-11.26,9.3-20.58,9.3-14.79,0-26.69-5.58-26.69-18.75s8.2-22.61,39.4-22.61h7.08v-5.01c0-8.73-3.38-14.88-14.63-14.88-10.13,0-18.17,2.72-25.08,5.72l-3.7-8.01c8.52-2.86,17.85-5.01,28.94-5.01,15.11,0,25.08,6.73,25.08,21.04v25.9c0,5.15,1.29,12.02,2.25,20.04h-9.33Zm-3.38-32.77h-4.98c-23.15,0-30.55,4.72-30.55,15.31,0,7.3,6.11,11.74,16.72,11.74,8.52,0,15.44-3.43,18.81-8.73v-18.32Z"/>
          <path class="cls-2" d="m1669.83,572.63v-40.64c0-10.02-1.93-19.03-16.24-19.03-9.65,0-16.4,7.87-18.97,13.88v45.79h-10.45v-51.52c0-5.44-.96-8.73-1.45-13.88h9.17l2.25,9.73c2.89-3.01,9.33-11.31,20.9-11.31,19.62,0,25.25,10.73,25.25,25.76v41.22h-10.45Z"/>
          <path class="cls-2" d="m1718.87,574.2c-8.52,0-18.33-1.43-25.25-4.15l3.7-7.87c9,3.29,13.02,4.72,21.87,4.72,10.45,0,15.92-4.29,15.92-11.74s-8.2-9.3-17.21-11.88c-11.26-3.29-23.96-7.16-23.96-19.18,0-13.88,13.51-18.46,27.01-18.46,7.24,0,12.86,1.14,22.83,4.44l-3.7,7.87c-7.4-3.01-10.61-5.01-18.97-5.01-9.17,0-16.08,2.86-16.08,10.73,0,5.72,7.24,7.87,15.6,10.16,11.58,3.15,25.57,6.73,25.57,21.18,0,13.45-13.19,19.18-27.34,19.18Z"/>
          <path class="cls-2" d="m1788.65,574.2c-24.44,0-32.48-15.6-32.48-34.63,0-18.03,8.04-33.92,32.48-33.92s32.32,15.03,32.32,33.92-7.88,34.63-32.32,34.63Zm0-61.25c-15.44,0-21.55,10.59-21.55,26.62s4.98,27.33,21.55,27.33,21.39-11.31,21.39-27.33-4.98-26.62-21.39-26.62Z"/>
          <path class="cls-2" d="m1882.4,572.63l-2.41-9.73c-2.89,3.01-8.68,11.31-20.26,11.31-18.81,0-24.76-10.73-24.76-25.76v-41.22h10.45v40.64c0,10.02,1.93,19.03,15.76,19.03,9.65,0,15.76-7.87,18.33-13.88v-45.79h10.45v51.52c0,5.44,1.13,8.73,1.61,13.88h-9.17Z"/>
          <path class="cls-2" d="m1945.91,516.67c-2.57-2-7.24-3.72-11.58-3.72-8.84,0-13.83,13.02-16.08,17.17v42.5h-10.45v-50.8c0-6.44-1.13-11.31-1.45-14.6h9.17l2.25,13.31c2.73-4.72,9.81-14.88,18.65-14.88,6.11,0,10.61,1.72,13.19,3.15l-3.7,7.87Z"/>
        </g>
        <g>
          <path class="cls-1" d="m678.94,175.06v78.24h113.84v29.73h-113.84v114.62h-43.95v-253.11h163.07v30.51h-119.12Z"/>
          <path class="cls-1" d="m821.35,397.66v-178.78h39.56v178.78h-39.56Z"/>
          <path class="cls-1" d="m978.7,429.34c-46.15-10.17-80-35.99-80-75.89v-107.58h-32.53v-27.38h32.53v-46.55h39.56v46.55h46.59v27.38h-46.59v108.36c0,24.25,21.1,37.56,54.06,43.42l-13.63,31.69Z"/>
          <path class="cls-3" d="m1085.4,402.74c-69.89,0-94.06-43.81-94.06-95.45s24.61-93.5,94.06-93.5,93.62,41.86,93.62,93.5-24.18,95.45-93.62,95.45Zm0-161.57c-36.92,0-53.62,22.3-53.62,66.11,0,41.47,14.07,68.07,53.62,68.07s53.18-24.65,53.18-68.07-14.07-66.11-53.18-66.11Z"/>
          <path class="cls-3" d="m1288.91,397.66h-36.92l-77.8-178.78h42.2l55.38,136.14,54.06-136.14h40.44l-77.36,178.78Z"/>
          <path class="cls-3" d="m1408.46,321.76c2.64,33.25,18.46,54.38,53.18,54.38,20.22,0,40-5.87,61.1-15.26l12.75,27.38c-23.74,9.78-50.99,14.08-77.36,14.08-62.85,0-91.43-42.64-91.43-92.32,0-41.47,18.9-95.84,89.23-95.84s90.55,39.9,90.55,107.58h-138.02Zm47.91-80.59c-23.74,0-46.15,15.26-48.35,54.38h100.22c-1.32-38.34-19.78-54.38-51.87-54.38Z"/>
          <path class="cls-3" d="m1674.82,252.13c-7.47-4.3-16.7-10.95-30.33-10.95-24.61,0-33.84,32.08-39.12,43.03v113.45h-39.12v-138.87c0-17.6-3.52-30.9-4.84-39.9h35.6l7.03,31.3c7.03-12.13,24.61-36.38,47.47-36.38,15.82,0,26.37,3.13,37.36,9l-14.07,29.34Z"/>
          <path class="cls-1" d="m1770.09,204.01v14.87h45.71v26.99h-45.71v151.78h-39.12v-151.78h-30.33v-26.99h30.33v-12.13c0-50.46,54.5-70.81,89.67-73.15l10.11,29.34c-40.88,3.91-60.66,17.21-60.66,41.08Z"/>
          <path class="cls-1" d="m1956.89,397.66c0-1.56-6.59-17.6-7.03-19.56-10.55,10.95-30.77,24.25-54.5,24.25-45.71,0-75.6-16.82-75.6-51.64s23.3-63.37,109.01-63.37h18.02v-11.35c0-18.78-6.15-34.82-34.28-34.82s-51.43,7.43-70.77,15.65l-13.63-28.95c25.05-8.22,54.5-13.69,85.71-13.69,42.64,0,72.52,18,72.52,57.12v71.59c0,14.08,4.4,34.03,7.03,54.77h-36.48Zm-9.67-86.06h-12.31c-55.38,0-73.84,12.13-73.84,37.56,0,17.6,16.7,26.21,40.44,26.21,20.66,0,37.36-9,45.71-21.12v-42.64Z"/>
          <path class="cls-1" d="m2054.46,175.06v222.59h-43.51v-222.59h-81.32v-30.51h206.15v30.51h-81.32Z"/>
          <circle class="cls-1" cx="840.93" cy="160.91" r="20.15"/>
        </g>
      </g>
    </g>
  </g>
</svg>