<svg width="355" height="171" viewBox="0 0 355 171" fill="none" xmlns="http://www.w3.org/2000/svg">
<g opacity="0.3">
<rect x="46" y="64" width="263" height="102" rx="14" fill="#7FC902" fill-opacity="0.25"/>
</g>
<g filter="url(#filter0_d_433_4880)">
<rect x="30" y="37" width="295" height="117" rx="14" fill="#7FC902" fill-opacity="0.35"/>
</g>
<g filter="url(#filter1_dd_433_4880)">
<g clip-path="url(#clip0_433_4880)">
<rect x="14" y="11" width="327" height="130" rx="14" fill="#7FC902"/>
<circle opacity="0.08" cx="267.899" cy="75.9536" r="64.934" fill="white"/>
<circle opacity="0.04" cx="267.898" cy="75.9531" r="80.4492" fill="white"/>
<circle opacity="0.04" cx="267.944" cy="76" r="100.62" fill="white"/>
<g filter="url(#filter2_d_433_4880)">
<path d="M269.572 107.67C286.486 107.67 300.198 93.9578 300.198 77.0434C300.198 60.1289 286.486 46.417 269.572 46.417C252.657 46.417 238.945 60.1289 238.945 77.0434C238.945 93.9578 252.657 107.67 269.572 107.67Z" fill="white"/>
</g>
<path d="M274.745 77.3627C274.745 80.08 272.542 82.2829 269.825 82.2829C267.107 82.2829 264.904 80.08 264.904 77.3627C264.904 74.6453 267.107 72.4424 269.825 72.4424C272.542 72.4424 274.745 74.6453 274.745 77.3627Z" stroke="#00BA39"/>
<path d="M269.573 110.364C262.982 110.364 256.54 108.41 251.061 104.748C245.581 101.087 241.31 95.8832 238.788 89.7946C236.266 83.706 235.607 77.0064 236.892 70.5428C238.178 64.0792 241.351 58.1421 246.011 53.4821C250.671 48.8221 256.609 45.6486 263.072 44.3629C269.536 43.0772 276.235 43.7371 282.324 46.2591C288.412 48.781 293.616 53.0518 297.278 58.5314C300.939 64.0109 302.893 70.4531 302.893 77.0433C302.881 85.8768 299.367 94.3449 293.12 100.591C286.874 106.837 278.406 110.352 269.573 110.364ZM269.573 49.1346C264.053 49.1345 258.657 50.7712 254.067 53.8379C249.477 56.9046 245.9 61.2634 243.787 66.3632C241.675 71.463 241.122 77.0746 242.199 82.4885C243.276 87.9025 245.934 92.8755 249.837 96.7787C253.741 100.682 258.714 103.34 264.127 104.417C269.541 105.494 275.153 104.941 280.253 102.829C285.353 100.716 289.711 97.1388 292.778 92.5491C295.845 87.9594 297.482 82.5633 297.481 77.0433C297.474 69.6438 294.531 62.5495 289.299 57.3171C284.066 52.0848 276.972 49.1423 269.573 49.1346Z" fill="#00BA39"/>
<path d="M272.874 38.1543H266.295V46.3273H272.874V38.1543Z" fill="#00BA39"/>
<path d="M273.704 40.128H265.441C265.095 40.1277 264.764 39.9905 264.52 39.7463C264.276 39.5022 264.139 39.1712 264.139 38.8259V35.3021C264.139 34.9568 264.276 34.6258 264.52 34.3817C264.764 34.1375 265.095 34.0003 265.441 34H273.703C274.049 34.0003 274.38 34.1375 274.624 34.3817C274.868 34.6258 275.005 34.9568 275.006 35.3021V38.8047C275.008 38.9772 274.975 39.1484 274.911 39.3084C274.847 39.4685 274.751 39.6142 274.63 39.7372C274.509 39.8602 274.365 39.958 274.206 40.0251C274.047 40.0922 273.876 40.1272 273.704 40.128Z" fill="#00BA39"/>
<path d="M243.596 49.9861L239.881 53.7012L244.501 58.3212L248.216 54.6061L243.596 49.9861Z" fill="#00BA39"/>
<path d="M245.189 50.6156L240.518 55.2871C240.32 55.4814 240.054 55.5903 239.777 55.5903C239.5 55.5903 239.234 55.4814 239.036 55.2871L237.061 53.3119C236.867 53.1143 236.758 52.8482 236.758 52.571C236.758 52.2938 236.867 52.0278 237.061 51.8301L241.731 47.1596C241.929 46.9653 242.195 46.8564 242.472 46.8564C242.75 46.8564 243.016 46.9653 243.213 47.1596L245.188 49.1348C245.383 49.3323 245.491 49.5981 245.492 49.875C245.492 50.1519 245.383 50.4179 245.189 50.6156Z" fill="#00BA39"/>
<path d="M299.131 53.6906L295.416 49.9756L290.796 54.5956L294.511 58.3106L299.131 53.6906Z" fill="#00BA39"/>
<path d="M298.493 55.2871L293.823 50.6166C293.628 50.419 293.52 50.1529 293.52 49.8757C293.52 49.5985 293.628 49.3324 293.823 49.1348L295.798 47.1596C295.996 46.9653 296.262 46.8564 296.539 46.8564C296.816 46.8564 297.082 46.9653 297.28 47.1596L301.95 51.8301C302.144 52.0278 302.253 52.2938 302.253 52.571C302.253 52.8482 302.144 53.1143 301.95 53.3119L299.975 55.2871C299.777 55.4814 299.511 55.5903 299.234 55.5903C298.957 55.5903 298.691 55.4814 298.493 55.2871Z" fill="#00BA39"/>
<path d="M269.595 102.53H268.809L268.966 97.141H269.574L269.595 102.53ZM281.653 99.4985L279.093 94.7379C279.273 94.6483 279.452 94.5354 279.632 94.4234L282.326 99.0939L281.653 99.4985ZM256.864 99.1395L256.19 98.7343L259.042 94.154C259.222 94.2664 259.401 94.3566 259.581 94.4685L256.864 99.1395ZM291.238 90.4478L286.658 87.596C286.77 87.4162 286.882 87.237 286.972 87.0572L291.643 89.7515C291.523 89.9919 291.388 90.2245 291.238 90.4478ZM247.523 89.8178C247.388 89.5935 247.254 89.3686 247.141 89.1442L251.902 86.5846C251.992 86.7644 252.104 86.9437 252.194 87.1235L247.523 89.8178ZM295.036 77.8292L289.648 77.6722V76.954H295.057V77.0214C295.036 77.3126 295.036 77.582 295.036 77.8292ZM244.943 77.0883H244.088V76.325L249.476 76.482V77.066L244.943 77.0883ZM287.223 67.5007C287.133 67.3209 287.02 67.1416 286.908 66.9618L291.579 64.2448C291.714 64.4691 291.848 64.694 291.961 64.9183L287.223 67.5007ZM252.173 67.0515L247.481 64.3572L247.886 63.6836L252.466 66.5354C252.373 66.7147 252.261 66.894 252.171 67.0515H252.173ZM280.083 59.9562C279.903 59.8437 279.724 59.7318 279.544 59.6417L282.238 54.9489L282.912 55.3541L280.083 59.9562ZM259.493 59.6867L256.776 55.0163C257 54.8816 257.225 54.7469 257.449 54.6344L260.009 59.395C259.85 59.4847 259.67 59.5971 259.491 59.6842L259.493 59.6867ZM270.136 56.9924H269.507V51.5811H270.271L270.136 56.9924Z" fill="#223E3B"/>
<path d="M286.547 43.2961C287.105 43.2961 287.558 42.8438 287.558 42.2858C287.558 41.7277 287.105 41.2754 286.547 41.2754C285.989 41.2754 285.537 41.7277 285.537 42.2858C285.537 42.8438 285.989 43.2961 286.547 43.2961Z" fill="#00BA39"/>
<path d="M233.087 87.776C233.087 88.0647 233.002 88.3469 232.841 88.5869C232.681 88.8269 232.453 89.014 232.186 89.1245C231.919 89.2349 231.626 89.2638 231.343 89.2075C231.06 89.1512 230.8 89.0122 230.595 88.8081C230.391 88.6039 230.252 88.3439 230.196 88.0607C230.14 87.7776 230.169 87.4841 230.279 87.2174C230.39 86.9507 230.577 86.7228 230.817 86.5624C231.057 86.402 231.339 86.3164 231.628 86.3164C231.819 86.316 232.009 86.3535 232.187 86.4267C232.364 86.4999 232.525 86.6074 232.661 86.743C232.796 86.8786 232.904 87.0397 232.977 87.217C233.05 87.3942 233.088 87.5842 233.087 87.776Z" fill="#00BA39"/>
<path d="M245.113 107.788C245.566 105.869 244.378 103.946 242.459 103.493C240.54 103.04 238.617 104.228 238.164 106.147C237.711 108.066 238.899 109.988 240.818 110.442C242.737 110.895 244.66 109.706 245.113 107.788Z" fill="#00BA39"/>
<path d="M297.325 103.38C298.342 103.38 299.166 102.556 299.166 101.539C299.166 100.522 298.342 99.6982 297.325 99.6982C296.309 99.6982 295.484 100.522 295.484 101.539C295.484 102.556 296.309 103.38 297.325 103.38Z" fill="#00BA39"/>
<path d="M250.173 38.7153C250.173 39.0706 250.067 39.4179 249.87 39.7133C249.673 40.0087 249.392 40.239 249.064 40.3749C248.736 40.5109 248.374 40.5465 248.026 40.4772C247.678 40.4079 247.357 40.2368 247.106 39.9855C246.855 39.7343 246.684 39.4142 246.615 39.0658C246.545 38.7173 246.581 38.3561 246.717 38.0279C246.853 37.6996 247.083 37.4191 247.378 37.2217C247.674 37.0243 248.021 36.9189 248.376 36.9189C248.852 36.9203 249.309 37.11 249.645 37.4466C249.982 37.7832 250.171 38.2393 250.173 38.7153Z" fill="#00BA39"/>
<path d="M233.85 63.8399C233.85 64.3195 233.708 64.7883 233.441 65.1871C233.175 65.5859 232.796 65.8967 232.353 66.0802C231.91 66.2637 231.422 66.3118 230.952 66.2182C230.481 66.1246 230.049 65.8937 229.71 65.5546C229.371 65.2154 229.14 64.7834 229.047 64.313C228.953 63.8426 229.001 63.3551 229.185 62.912C229.368 62.4689 229.679 62.0902 230.078 61.8237C230.476 61.5573 230.945 61.4151 231.425 61.4151C231.744 61.4137 232.06 61.4755 232.354 61.5969C232.649 61.7183 232.917 61.8969 233.142 62.1223C233.368 62.3477 233.546 62.6156 233.668 62.9104C233.789 63.2052 233.851 63.5211 233.85 63.8399Z" fill="#223E3B"/>
<path d="M283.359 117.437C285.12 117.437 286.547 116.009 286.547 114.248C286.547 112.487 285.12 111.06 283.359 111.06C281.598 111.06 280.17 112.487 280.17 114.248C280.17 116.009 281.598 117.437 283.359 117.437Z" fill="#223E3B"/>
<path d="M305.611 97.7909C305.934 97.7909 306.195 97.5295 306.195 97.207C306.195 96.8845 305.934 96.623 305.611 96.623C305.289 96.623 305.027 96.8845 305.027 97.207C305.027 97.5295 305.289 97.7909 305.611 97.7909Z" fill="#83339B"/>
<path d="M305.543 43.4308C305.543 43.8837 305.409 44.3265 305.157 44.7031C304.906 45.0797 304.548 45.3733 304.129 45.5466C303.711 45.7199 303.25 45.7653 302.806 45.6769C302.362 45.5886 301.954 45.3704 301.634 45.0502C301.313 44.7299 301.095 44.3218 301.007 43.8776C300.919 43.4333 300.964 42.9728 301.137 42.5544C301.311 42.1359 301.604 41.7782 301.981 41.5266C302.357 41.2749 302.8 41.1406 303.253 41.1406C303.86 41.1432 304.441 41.3853 304.87 41.8142C305.299 42.2431 305.541 42.8242 305.543 43.4308Z" fill="#223E3B"/>
<path d="M256.124 114.495C256.869 114.495 257.472 113.892 257.472 113.148C257.472 112.404 256.869 111.801 256.124 111.801C255.38 111.801 254.777 112.404 254.777 113.148C254.777 113.892 255.38 114.495 256.124 114.495Z" fill="#223E3B"/>
</g>
<rect x="14" y="11" width="327" height="130" rx="14" stroke="#F7FAFC"/>
</g>
<defs>
<filter id="filter0_d_433_4880" x="16.5" y="26.5" width="322" height="144" filterUnits="userSpaceOnUse" color-interpolation-filters="sRGB">
<feFlood flood-opacity="0" result="BackgroundImageFix"/>
<feColorMatrix in="SourceAlpha" type="matrix" values="0 0 0 0 0 0 0 0 0 0 0 0 0 0 0 0 0 0 127 0" result="hardAlpha"/>
<feMorphology radius="1.5" operator="erode" in="SourceAlpha" result="effect1_dropShadow_433_4880"/>
<feOffset dy="3"/>
<feGaussianBlur stdDeviation="7.5"/>
<feColorMatrix type="matrix" values="0 0 0 0 0.196078 0 0 0 0 0.196078 0 0 0 0 0.278431 0 0 0 0.02 0"/>
<feBlend mode="normal" in2="BackgroundImageFix" result="effect1_dropShadow_433_4880"/>
<feBlend mode="normal" in="SourceGraphic" in2="effect1_dropShadow_433_4880" result="shape"/>
</filter>
<filter id="filter1_dd_433_4880" x="0" y="0" width="355" height="158" filterUnits="userSpaceOnUse" color-interpolation-filters="sRGB">
<feFlood flood-opacity="0" result="BackgroundImageFix"/>
<feColorMatrix in="SourceAlpha" type="matrix" values="0 0 0 0 0 0 0 0 0 0 0 0 0 0 0 0 0 0 127 0" result="hardAlpha"/>
<feMorphology radius="1.5" operator="erode" in="SourceAlpha" result="effect1_dropShadow_433_4880"/>
<feOffset dy="3"/>
<feGaussianBlur stdDeviation="7.5"/>
<feColorMatrix type="matrix" values="0 0 0 0 0.196078 0 0 0 0 0.196078 0 0 0 0 0.278431 0 0 0 0.02 0"/>
<feBlend mode="normal" in2="BackgroundImageFix" result="effect1_dropShadow_433_4880"/>
<feColorMatrix in="SourceAlpha" type="matrix" values="0 0 0 0 0 0 0 0 0 0 0 0 0 0 0 0 0 0 127 0" result="hardAlpha"/>
<feOffset/>
<feGaussianBlur stdDeviation="1.875"/>
<feColorMatrix type="matrix" values="0 0 0 0 0.0470588 0 0 0 0 0.101961 0 0 0 0 0.294118 0 0 0 0.05 0"/>
<feBlend mode="normal" in2="effect1_dropShadow_433_4880" result="effect2_dropShadow_433_4880"/>
<feBlend mode="normal" in="SourceGraphic" in2="effect2_dropShadow_433_4880" result="shape"/>
</filter>
<filter id="filter2_d_433_4880" x="234.945" y="46.417" width="69.252" height="69.2529" filterUnits="userSpaceOnUse" color-interpolation-filters="sRGB">
<feFlood flood-opacity="0" result="BackgroundImageFix"/>
<feColorMatrix in="SourceAlpha" type="matrix" values="0 0 0 0 0 0 0 0 0 0 0 0 0 0 0 0 0 0 127 0" result="hardAlpha"/>
<feOffset dy="4"/>
<feGaussianBlur stdDeviation="2"/>
<feComposite in2="hardAlpha" operator="out"/>
<feColorMatrix type="matrix" values="0 0 0 0 0 0 0 0 0 0 0 0 0 0 0 0 0 0 0.25 0"/>
<feBlend mode="normal" in2="BackgroundImageFix" result="effect1_dropShadow_433_4880"/>
<feBlend mode="normal" in="SourceGraphic" in2="effect1_dropShadow_433_4880" result="shape"/>
</filter>
<clipPath id="clip0_433_4880">
<rect x="14" y="11" width="327" height="130" rx="14" fill="white"/>
</clipPath>
</defs>
</svg>
