<?xml version="1.0" encoding="UTF-8"?>
<svg xmlns="http://www.w3.org/2000/svg" xmlns:xlink="http://www.w3.org/1999/xlink" viewBox="0 0 169.05 169.05">
  <defs>
    <style>
      .cls-1, .cls-2 {
        fill: #a28051;
      }

      .cls-2, .cls-3 {
        opacity: .4;
      }

      .cls-4 {
        fill: #a2b62d;
      }

      .cls-5 {
        fill: #6a5798;
      }

      .cls-6, .cls-3 {
        fill: #81613c;
      }

      .cls-7 {
        fill: #b1c53f;
      }

      .cls-8 {
        isolation: isolate;
      }

      .cls-9 {
        fill: #f7eb45;
      }

      .cls-10 {
        fill: #dddb1c;
      }

      .cls-11 {
        fill: url(#linear-gradient);
        mix-blend-mode: multiply;
        opacity: .8;
      }

      .cls-12 {
        fill: #6d7022;
      }
    </style>
    <linearGradient id="linear-gradient" x1="96.68" y1="158.05" x2="87.24" y2="104.47" gradientUnits="userSpaceOnUse">
      <stop offset=".05" stop-color="#be3176" stop-opacity="0"/>
      <stop offset="1" stop-color="#211915"/>
    </linearGradient>
  </defs>
  <g class="cls-8">
    <g id="Layer_2" data-name="Layer 2">
      <g id="OBJECTS">
        <g>
          <g>
            <polygon class="cls-11" points="42.82 112.3 59.22 164.66 140.86 148.85 126.25 112.3 42.82 112.3"/>
            <g>
              <path class="cls-5" d="m169.05,84.53c0,46.68-37.84,84.52-84.53,84.52S0,131.21,0,84.53,37.84,0,84.52,0s84.53,37.84,84.53,84.53Z"/>
              <polygon class="cls-11" points="42.82 112.3 59.22 164.66 140.86 148.85 126.25 112.3 42.82 112.3"/>
            </g>
          </g>
          <g>
            <rect class="cls-12" x="78.95" y="2.68" width="5.86" height="11.46"/>
            <path class="cls-4" d="m81.88,6.65v133.67s-49.78,3.71-46.85-54.01c0,0,0-16.99,18.16-47.15,0,0,19.32-32.5,28.69-32.5Z"/>
            <path class="cls-7" d="m81.88,6.65v133.67s49.78,3.71,46.85-54.01c0,0,0-16.99-18.15-47.15,0,0-19.32-32.5-28.7-32.5Z"/>
            <g>
              <path class="cls-4" d="m100.99,128.84c0-2.18-1.77-3.95-3.95-3.95s-3.95,1.77-3.95,3.95,1.77,3.95,3.95,3.95,3.95-1.77,3.95-3.95Z"/>
              <path class="cls-4" d="m110.08,124.89c0-1.93-1.56-3.49-3.49-3.49s-3.49,1.56-3.49,3.49,1.56,3.49,3.49,3.49,3.49-1.56,3.49-3.49Z"/>
              <path class="cls-4" d="m100.77,119.82c0-1.37-1.11-2.48-2.48-2.48s-2.48,1.11-2.48,2.48,1.11,2.48,2.48,2.48,2.48-1.11,2.48-2.48Z"/>
              <path class="cls-4" d="m106.59,117.33c0-.67-.54-1.21-1.21-1.21s-1.21.54-1.21,1.21.54,1.21,1.21,1.21,1.21-.54,1.21-1.21Z"/>
              <path class="cls-4" d="m112.96,118.35c0-.96-.78-1.74-1.74-1.74s-1.74.78-1.74,1.74.78,1.74,1.74,1.74,1.74-.78,1.74-1.74Z"/>
              <circle class="cls-4" cx="93.1" cy="122.3" r="1.21"/>
              <path class="cls-4" d="m90.9,127.04c0-.98-.79-1.78-1.77-1.78s-1.77.79-1.77,1.78.79,1.77,1.77,1.77,1.77-.79,1.77-1.77Z"/>
            </g>
            <g>
              <path class="cls-7" d="m62.67,128.84c0-2.18,1.77-3.95,3.95-3.95s3.95,1.77,3.95,3.95-1.77,3.95-3.95,3.95-3.95-1.77-3.95-3.95Z"/>
              <path class="cls-7" d="m53.58,124.89c0-1.93,1.57-3.49,3.49-3.49s3.5,1.56,3.5,3.49-1.56,3.49-3.5,3.49-3.49-1.56-3.49-3.49Z"/>
              <path class="cls-7" d="m62.9,119.82c0-1.37,1.11-2.48,2.48-2.48s2.48,1.11,2.48,2.48-1.11,2.48-2.48,2.48-2.48-1.11-2.48-2.48Z"/>
              <path class="cls-7" d="m57.07,117.33c0-.67.54-1.21,1.21-1.21s1.21.54,1.21,1.21-.54,1.21-1.21,1.21-1.21-.54-1.21-1.21Z"/>
              <path class="cls-7" d="m50.7,118.35c0-.96.78-1.74,1.74-1.74s1.74.78,1.74,1.74-.78,1.74-1.74,1.74-1.74-.78-1.74-1.74Z"/>
              <path class="cls-7" d="m69.36,122.3c0-.67.54-1.21,1.21-1.21s1.21.54,1.21,1.21-.54,1.21-1.21,1.21-1.21-.54-1.21-1.21Z"/>
              <path class="cls-7" d="m72.77,127.04c0-.98.79-1.78,1.77-1.78s1.77.79,1.77,1.78-.79,1.77-1.77,1.77-1.77-.79-1.77-1.77Z"/>
            </g>
            <path class="cls-10" d="m81.88,12.9v121.17s-45.12,3.36-42.47-48.96c0,0,0-15.39,16.46-42.74,0,0,17.52-29.47,26.01-29.47Z"/>
            <path class="cls-9" d="m81.88,12.9v121.17s45.13,3.36,42.47-48.96c0,0,0-15.39-16.46-42.74,0,0-17.52-29.47-26.02-29.47Z"/>
            <path class="cls-3" d="m81.88,47.31v60.3s-22.45,1.67-21.13-24.37c0,0,0-7.66,8.19-21.27,0,0,8.72-14.66,12.94-14.66Z"/>
            <path class="cls-2" d="m81.88,47.31v60.3s22.46,1.67,21.14-24.37c0,0,0-7.66-8.19-21.27,0,0-8.72-14.66-12.95-14.66Z"/>
            <path class="cls-6" d="m81.88,50.57v53.77s-20.02,1.49-18.85-21.73c0,0,0-6.83,7.3-18.96,0,0,7.77-13.08,11.54-13.08Z"/>
            <path class="cls-1" d="m81.88,50.57v53.77s20.03,1.49,18.85-21.73c0,0,0-6.83-7.3-18.96,0,0-7.77-13.08-11.55-13.08Z"/>
          </g>
        </g>
      </g>
    </g>
  </g>
</svg>