<svg width="21" height="18" viewBox="0 0 21 18" fill="none" xmlns="http://www.w3.org/2000/svg">
<g id="_9" clip-path="url(#clip0_1_2888)">
<path id="Vector" d="M0 10.897V10.1579L0.841353 10.897H0Z" fill="#FFC200"/>
<path id="Vector_2" d="M5.68442 10.1579C5.68442 10.5674 5.35041 10.8991 4.93819 10.8991H0.746225C0.334004 10.897 0 10.5653 0 10.1579C0 9.74852 0.334004 9.41678 0.746225 9.41678H4.93819C5.35041 9.41678 5.68442 9.74852 5.68442 10.1579Z" fill="#FFA300"/>
<path id="Vector_3" d="M5.6823 14.7225C5.6823 15.1319 5.3483 15.4616 4.93608 15.4616H0.746225C0.334004 15.4616 0 15.1298 0 14.7225C0 14.5188 0.0845581 14.3341 0.217737 14.1997C0.35303 14.0653 0.536944 13.9834 0.744111 13.9834H4.93608C5.3483 13.9834 5.6823 14.3152 5.6823 14.7225Z" fill="#FFA300"/>
<path id="Vector_4" d="M13.0431 6.52769H11.9988L11.7916 2.96884H13.2524L13.0431 6.52769Z" fill="#4C2608"/>
<path id="Vector_5" d="M12.5209 5.13355C12.5209 5.13355 5.45822 1.95264 4.18774 7.42423C3.51127 10.3343 5.35464 13.9477 6.85343 16.2741C7.773 17.7018 9.54238 18.3359 11.168 17.8173L12.5209 17.3848V5.13355Z" fill="#DBE220"/>
<path id="Vector_6" d="M12.5209 5.13355C12.5209 5.13355 19.5836 1.95264 20.8541 7.42423C21.5306 10.3343 19.6872 13.9477 18.1884 16.2741C17.2689 17.7018 15.4995 18.3359 13.8739 17.8194L12.5209 17.3869V5.13355Z" fill="#ADA800"/>
<path id="Vector_7" d="M8.52557 0.382129C8.52557 0.382129 8.35222 2.11221 10.0413 3.17882C11.7303 4.24332 13.041 3.47906 13.2355 3.35308C13.2672 3.12423 13.4067 1.623 11.7197 0.556397C10.0307 -0.510207 8.72005 0.256152 8.52557 0.382129Z" fill="#7C7603"/>
<path id="Vector_8" d="M8.24084 6.98472L6.61722 8.59677L8.24028 10.2094L9.8639 8.59733L8.24084 6.98472Z" fill="#F7FAFF"/>
<path id="Vector_9" d="M12.4364 10.897V15.4616H0.746225C0.334004 15.4616 0 15.1298 0 14.7225V10.897H12.4364Z" fill="#FFC200"/>
<path id="Vector_10" d="M14.1762 10.601H11.2505C11.1594 10.601 11.0856 10.6743 11.0856 10.7647V15.5938C11.0856 15.6843 11.1594 15.7576 11.2505 15.7576H14.1762C14.2672 15.7576 14.3411 15.6843 14.3411 15.5938V10.7647C14.3411 10.6743 14.2672 10.601 14.1762 10.601Z" fill="#606060"/>
<path id="Vector_11" d="M8.76657 13.8617H8.36069V15.4637H8.76657V13.8617Z" fill="#492C14"/>
<path id="Vector_12" d="M9.20204 12.604H9.42612V11.9048L9.19781 11.9573V11.7683L9.42612 11.7159H9.66711V12.604H9.88908V12.7972H9.20204V12.604Z" fill="#492C14"/>
<path id="Vector_13" d="M7.43689 12.6019H7.86813V12.8076H7.15573V12.6019L7.51299 12.2533C7.5447 12.2219 7.56795 12.1904 7.58486 12.1589C7.59966 12.1295 7.60812 12.0959 7.60812 12.0644C7.60812 12.014 7.59332 11.972 7.56161 11.9426C7.5299 11.9111 7.48974 11.8964 7.439 11.8964C7.39884 11.8964 7.35656 11.9048 7.31005 11.9237C7.26354 11.9426 7.21281 11.9699 7.15996 12.0056V11.7683C7.21704 11.7473 7.27411 11.7326 7.32908 11.72C7.38404 11.7095 7.439 11.7032 7.49185 11.7032C7.60812 11.7032 7.70113 11.7326 7.76455 11.7893C7.83008 11.846 7.86179 11.9258 7.86179 12.0287C7.86179 12.0875 7.84911 12.1421 7.81951 12.1946C7.79203 12.2449 7.73495 12.3142 7.64617 12.4003L7.43689 12.604V12.6019Z" fill="#492C14"/>
<g id="Group">
<path id="Vector_14" d="M13.8591 11.4408H11.6479V11.6592H13.8591V11.4408Z" fill="#B5B5B5"/>
<path id="Vector_15" d="M13.8591 12.2554H11.6479V12.4738H13.8591V12.2554Z" fill="#B5B5B5"/>
<path id="Vector_16" d="M13.8591 13.0722H11.6479V13.2906H13.8591V13.0722Z" fill="#B5B5B5"/>
<path id="Vector_17" d="M13.8591 13.8868H11.6479V14.1052H13.8591V13.8868Z" fill="#B5B5B5"/>
<path id="Vector_18" d="M13.8591 14.7036H11.6479V14.9219H13.8591V14.7036Z" fill="#B5B5B5"/>
</g>
<path id="Vector_19" d="M9.74533 13.2885H9.33945V15.4637H9.74533V13.2885Z" fill="#492C14"/>
<path id="Vector_20" d="M6.73504 13.8617H6.32916V15.4637H6.73504V13.8617Z" fill="#492C14"/>
<path id="Vector_21" d="M7.7138 13.2885H7.30792V15.4637H7.7138V13.2885Z" fill="#492C14"/>
<path id="Vector_22" d="M5.68231 13.2885H5.27643V15.4637H5.68231V13.2885Z" fill="#492C14"/>
<path id="Vector_23" d="M4.70355 13.8617H4.29767V15.4637H4.70355V13.8617Z" fill="#492C14"/>
<path id="Vector_24" d="M3.65292 13.2885H3.24704V15.4637H3.65292V13.2885Z" fill="#492C14"/>
<path id="Vector_25" d="M2.67416 13.8617H2.26828V15.4637H2.67416V13.8617Z" fill="#492C14"/>
<path id="Vector_26" d="M1.62139 13.2885H1.21552V15.4637H1.62139V13.2885Z" fill="#492C14"/>
<path id="Vector_27" d="M5.66115 12.2219C5.73302 12.2408 5.78799 12.2722 5.82392 12.3184C5.86197 12.3646 5.87889 12.4213 5.87889 12.4927C5.87889 12.5977 5.83872 12.6775 5.75839 12.7321C5.67806 12.7867 5.55968 12.8139 5.40536 12.8139C5.3504 12.8139 5.29543 12.8098 5.24047 12.8014C5.18551 12.793 5.13055 12.7804 5.0777 12.7615V12.5515C5.12843 12.5767 5.17917 12.5956 5.2299 12.6082C5.28064 12.6208 5.32926 12.6271 5.37999 12.6271C5.45187 12.6271 5.50894 12.6145 5.54699 12.5893C5.58505 12.5641 5.60619 12.5284 5.60619 12.4822C5.60619 12.436 5.58716 12.3982 5.54699 12.373C5.50683 12.3478 5.44975 12.3352 5.37154 12.3352H5.26161V12.1589H5.37788C5.44764 12.1589 5.49837 12.1484 5.5322 12.1274C5.56602 12.1064 5.58293 12.0728 5.58293 12.0287C5.58293 11.9888 5.56602 11.9573 5.53431 11.9342C5.5026 11.9132 5.4561 11.9006 5.39479 11.9006C5.3504 11.9006 5.306 11.9048 5.26161 11.9153C5.21722 11.9258 5.17071 11.9405 5.12632 11.9594V11.7599C5.18128 11.7452 5.23413 11.7347 5.28698 11.7263C5.33983 11.718 5.39268 11.7159 5.44341 11.7159C5.58082 11.7159 5.6844 11.7389 5.75416 11.783C5.82392 11.8271 5.85775 11.8964 5.85775 11.9867C5.85775 12.0476 5.84083 12.1001 5.80912 12.1379C5.7753 12.1778 5.7288 12.2051 5.66326 12.2219H5.66115Z" fill="#492C14"/>
<path id="Vector_28" d="M3.43307 11.697H3.75016V12.3919H3.9087V12.5977H3.75016V12.7972H3.47957V12.5977H2.98914V12.3541L3.43307 11.697ZM3.47957 11.93L3.16671 12.3898H3.47957V11.93Z" fill="#492C14"/>
</g>
<defs>
<clipPath id="clip0_1_2888">
<rect width="21" height="18" fill="white"/>
</clipPath>
</defs>
</svg>
