<svg width="2136" height="617" viewBox="0 0 2136 617" fill="none" xmlns="http://www.w3.org/2000/svg">
<path d="M147.72 336.46C164.907 336.46 178.84 322.527 178.84 305.34C178.84 288.153 164.907 274.22 147.72 274.22C130.533 274.22 116.6 288.153 116.6 305.34C116.6 322.527 130.533 336.46 147.72 336.46Z" fill="#414042"/>
<path d="M178.23 50.4C225.16 87.41 242.7 126.76 231.87 170.71C230.37 176.81 234.09 182.97 240.19 184.48C241.1 184.71 242.02 184.81 242.92 184.81C248.03 184.81 252.68 181.34 253.96 176.15C260.32 150.34 258.63 125.36 248.93 101.9C238.86 77.55 219.81 54.21 192.33 32.53C187.4 28.64 180.24 29.48 176.35 34.42C172.46 39.35 173.3 46.51 178.24 50.4H178.23Z" fill="#7FC902"/>
<path d="M431.06 14.11C363.01 -47.9 266.47 114.62 266.47 114.62C330.05 138.37 499.11 76.12 431.06 14.11Z" fill="#7FC902"/>
<path d="M93.04 305.79C93.04 336.58 118 361.54 148.79 361.54C179.58 361.54 204.54 336.58 204.54 305.79C204.54 275 179.58 250.04 148.79 250.04C118 250.04 93.04 275 93.04 305.79ZM179.16 305.79C179.16 322.56 165.56 336.16 148.79 336.16C132.02 336.16 118.42 322.56 118.42 305.79C118.42 289.02 132.02 275.42 148.79 275.42C165.56 275.42 179.16 289.02 179.16 305.79Z" fill="#7FC902"/>
<path d="M457.73 240.77L457.31 240.08L456.83 239.43C416.13 184.08 368.1 172.46 334.98 172.46C297.03 172.46 264.7 186.95 244.41 198.98C224.12 186.95 191.79 172.46 153.84 172.46C120.72 172.46 72.7 184.08 31.99 239.43L31.51 240.08L31.09 240.77C8.06 278.45 -2.27 321.05 0.409996 367.41C2.02 395.29 8.47 423.72 19.3 451.24C36.44 455.19 68.05 464.21 86.04 480.16C86.04 480.16 130 407.8 195.99 472.93C195.99 472.93 203.71 475.82 202.26 455.09C201.04 437.66 203.92 402.16 201.14 380.98C186.3 391.33 168.26 397.4 148.8 397.4C98.21 397.4 57.19 356.39 57.19 305.79C57.19 255.19 98.2 214.18 148.8 214.18C199.4 214.18 240.41 255.19 240.41 305.79C240.41 315.84 238.79 325.51 235.8 334.55C251.88 348.69 281.82 379.22 304.02 426.64C335.85 494.63 321.86 534.18 301.61 549.61C284.05 562.99 234.94 594.5 192.96 614.27C201.23 615.76 209.5 616.54 217.69 616.54H271.19C337.36 616.54 408.25 566.35 451.79 488.69C473.41 450.11 486.09 408.18 488.45 367.43C491.13 321.07 480.8 278.46 457.75 240.78L457.73 240.77Z" fill="#7FC902"/>
<path d="M846.56 572.63H821.15V480.04H846.56C882.58 480.04 896.25 492.63 896.25 525.98C896.25 559.33 881.78 572.63 846.56 572.63ZM846.56 488.2H832.89V564.48H848C872.44 564.48 884.02 552.89 884.02 526.13C884.02 497.22 873.57 488.21 846.55 488.21L846.56 488.2Z" fill="#58595B"/>
<path d="M950.91 516.67C948.34 514.67 943.67 512.95 939.33 512.95C930.49 512.95 925.5 525.97 923.25 530.12V572.62H912.8V521.82C912.8 515.38 911.67 510.51 911.35 507.22H920.52L922.77 520.53C925.5 515.81 932.58 505.65 941.42 505.65C947.53 505.65 952.03 507.37 954.61 508.8L950.91 516.67Z" fill="#58595B"/>
<path d="M960.08 574.06H950.11L984.52 478.46H994.33L960.08 574.06Z" fill="#58595B"/>
<path d="M1094.98 572.63L1060.73 531.27H1049.8V572.63H1038.06V480.04H1070.54C1087.1 480.04 1103.66 485.62 1103.66 504.94C1103.66 518.39 1096.75 530.13 1074.4 530.99L1109.45 572.63H1094.98ZM1071.34 488.2H1049.79V523.12H1071.5C1086.61 523.12 1091.6 515.25 1091.6 504.95C1091.6 494.07 1084.36 488.21 1071.34 488.21V488.2Z" fill="#58595B"/>
<path d="M1169.43 572.63C1169.27 571.63 1166.86 566.33 1166.7 564.9C1163 569.62 1155.44 574.2 1146.12 574.2C1131.33 574.2 1119.43 568.62 1119.43 555.45C1119.43 542.28 1127.63 532.84 1158.83 532.84H1165.91V527.83C1165.91 519.1 1162.53 512.95 1151.28 512.95C1141.15 512.95 1133.11 515.67 1126.2 518.67L1122.5 510.66C1131.02 507.8 1140.35 505.65 1151.44 505.65C1166.55 505.65 1176.52 512.38 1176.52 526.69V552.59C1176.52 557.74 1177.81 564.61 1178.77 572.63H1169.44H1169.43ZM1166.05 539.86H1161.07C1137.92 539.86 1130.52 544.58 1130.52 555.17C1130.52 562.47 1136.63 566.91 1147.24 566.91C1155.76 566.91 1162.68 563.48 1166.05 558.18V539.86Z" fill="#58595B"/>
<path d="M1286.17 572.63V531.13C1286.17 521.4 1283.6 512.96 1270.09 512.96C1260.76 512.96 1253.53 520.83 1250.79 527.56V572.64H1240.34V531.14C1240.34 519.26 1235.19 512.97 1224.42 512.97C1215.42 512.97 1208.18 520.98 1205.77 526.71V572.65H1195.32V522.28C1195.32 516.84 1194.36 512.12 1193.87 507.25H1203.04L1205.45 516.98C1208.51 512.97 1216.22 505.67 1226.03 505.67C1239.22 505.67 1244.68 511.11 1248.54 518.69C1252.72 512.68 1260.6 505.67 1271.21 505.67C1288.09 505.67 1296.62 513.4 1296.62 530.86V572.65H1286.17V572.63Z" fill="#58595B"/>
<path d="M1344.05 583.08C1339.87 593.24 1334.88 598.39 1321.7 602.54L1318.32 594.38C1327.16 592.23 1330.86 588.94 1332.47 585.08L1338.9 569.91L1309.47 507.23H1320.73L1344.21 559.18L1364.15 507.23H1374.76L1344.05 583.08Z" fill="#58595B"/>
<path d="M1518.36 572.63V491.34L1482.82 572.63H1473.17L1437.31 491.34V572.63H1426.54V480.04H1444.55L1478.48 558.03L1512.73 480.04H1529.77V572.63H1518.35H1518.36Z" fill="#58595B"/>
<path d="M1598.27 572.63C1598.11 571.63 1595.7 566.33 1595.54 564.9C1591.84 569.62 1584.28 574.2 1574.96 574.2C1560.17 574.2 1548.27 568.62 1548.27 555.45C1548.27 542.28 1556.47 532.84 1587.67 532.84H1594.75V527.83C1594.75 519.1 1591.37 512.95 1580.12 512.95C1569.99 512.95 1561.95 515.67 1555.04 518.67L1551.34 510.66C1559.86 507.8 1569.19 505.65 1580.28 505.65C1595.39 505.65 1605.36 512.38 1605.36 526.69V552.59C1605.36 557.74 1606.65 564.61 1607.61 572.63H1598.28H1598.27ZM1594.89 539.86H1589.91C1566.76 539.86 1559.36 544.58 1559.36 555.17C1559.36 562.47 1565.47 566.91 1576.08 566.91C1584.6 566.91 1591.52 563.48 1594.89 558.18V539.86Z" fill="#58595B"/>
<path d="M1669.83 572.63V531.99C1669.83 521.97 1667.9 512.96 1653.59 512.96C1643.94 512.96 1637.19 520.83 1634.62 526.84V572.63H1624.17V521.11C1624.17 515.67 1623.21 512.38 1622.72 507.23H1631.89L1634.14 516.96C1637.03 513.95 1643.47 505.65 1655.04 505.65C1674.66 505.65 1680.29 516.38 1680.29 531.41V572.63H1669.84H1669.83Z" fill="#58595B"/>
<path d="M1718.87 574.2C1710.35 574.2 1700.54 572.77 1693.62 570.05L1697.32 562.18C1706.32 565.47 1710.34 566.9 1719.19 566.9C1729.64 566.9 1735.11 562.61 1735.11 555.16C1735.11 547.71 1726.91 545.86 1717.9 543.28C1706.64 539.99 1693.94 536.12 1693.94 524.1C1693.94 510.22 1707.45 505.64 1720.95 505.64C1728.19 505.64 1733.81 506.78 1743.78 510.08L1740.08 517.95C1732.68 514.94 1729.47 512.94 1721.11 512.94C1711.94 512.94 1705.03 515.8 1705.03 523.67C1705.03 529.39 1712.27 531.54 1720.63 533.83C1732.21 536.98 1746.2 540.56 1746.2 555.01C1746.2 568.46 1733.01 574.19 1718.86 574.19L1718.87 574.2Z" fill="#58595B"/>
<path d="M1788.65 574.2C1764.21 574.2 1756.17 558.6 1756.17 539.57C1756.17 521.54 1764.21 505.65 1788.65 505.65C1813.09 505.65 1820.97 520.68 1820.97 539.57C1820.97 558.46 1813.09 574.2 1788.65 574.2ZM1788.65 512.95C1773.21 512.95 1767.1 523.54 1767.1 539.57C1767.1 555.6 1772.08 566.9 1788.65 566.9C1805.22 566.9 1810.04 555.59 1810.04 539.57C1810.04 523.55 1805.06 512.95 1788.65 512.95Z" fill="#58595B"/>
<path d="M1882.4 572.63L1879.99 562.9C1877.1 565.91 1871.31 574.21 1859.73 574.21C1840.92 574.21 1834.97 563.48 1834.97 548.45V507.23H1845.42V547.87C1845.42 557.89 1847.35 566.9 1861.18 566.9C1870.83 566.9 1876.94 559.03 1879.51 553.02V507.23H1889.96V558.75C1889.96 564.19 1891.09 567.48 1891.57 572.63H1882.4Z" fill="#58595B"/>
<path d="M1945.91 516.67C1943.34 514.67 1938.67 512.95 1934.33 512.95C1925.49 512.95 1920.5 525.97 1918.25 530.12V572.62H1907.8V521.82C1907.8 515.38 1906.67 510.51 1906.35 507.22H1915.52L1917.77 520.53C1920.5 515.81 1927.58 505.65 1936.42 505.65C1942.53 505.65 1947.03 507.37 1949.61 508.8L1945.91 516.67Z" fill="#58595B"/>
<path d="M678.94 175.06V253.3H792.78V283.03H678.94V397.65H634.99V144.54H798.06V175.05H678.94V175.06Z" fill="#7FC902"/>
<path d="M821.35 397.66V218.88H860.91V397.66H821.35Z" fill="#7FC902"/>
<path d="M978.7 429.34C932.55 419.17 898.7 393.35 898.7 353.45V245.87H866.17V218.49H898.7V171.94H938.26V218.49H984.85V245.87H938.26V354.23C938.26 378.48 959.36 391.79 992.32 397.65L978.69 429.34H978.7Z" fill="#7FC902"/>
<path d="M1085.4 402.74C1015.51 402.74 991.34 358.93 991.34 307.29C991.34 255.65 1015.95 213.79 1085.4 213.79C1154.85 213.79 1179.02 255.65 1179.02 307.29C1179.02 358.93 1154.84 402.74 1085.4 402.74ZM1085.4 241.17C1048.48 241.17 1031.78 263.47 1031.78 307.28C1031.78 348.75 1045.85 375.35 1085.4 375.35C1124.95 375.35 1138.58 350.7 1138.58 307.28C1138.58 263.86 1124.51 241.17 1085.4 241.17Z" fill="#414042"/>
<path d="M1288.91 397.66H1251.99L1174.19 218.88H1216.39L1271.77 355.02L1325.83 218.88H1366.27L1288.91 397.66Z" fill="#414042"/>
<path d="M1408.46 321.76C1411.1 355.01 1426.92 376.14 1461.64 376.14C1481.86 376.14 1501.64 370.27 1522.74 360.88L1535.49 388.26C1511.75 398.04 1484.5 402.34 1458.13 402.34C1395.28 402.34 1366.7 359.7 1366.7 310.02C1366.7 268.55 1385.6 214.18 1455.93 214.18C1526.26 214.18 1546.48 254.08 1546.48 321.76H1408.46ZM1456.37 241.17C1432.63 241.17 1410.22 256.43 1408.02 295.55H1508.24C1506.92 257.21 1488.46 241.17 1456.37 241.17Z" fill="#414042"/>
<path d="M1674.82 252.13C1667.35 247.83 1658.12 241.18 1644.49 241.18C1619.88 241.18 1610.65 273.26 1605.37 284.21V397.66H1566.25V258.79C1566.25 241.19 1562.73 227.89 1561.41 218.89H1597.01L1604.04 250.19C1611.07 238.06 1628.65 213.81 1651.51 213.81C1667.33 213.81 1677.88 216.94 1688.87 222.81L1674.8 252.15L1674.82 252.13Z" fill="#414042"/>
<path d="M1770.09 204.01V218.88H1815.8V245.87H1770.09V397.65H1730.97V245.87H1700.64V218.88H1730.97V206.75C1730.97 156.29 1785.47 135.94 1820.64 133.6L1830.75 162.94C1789.87 166.85 1770.09 180.15 1770.09 204.02V204.01Z" fill="#7FC902"/>
<path d="M1956.89 397.66C1956.89 396.1 1950.3 380.06 1949.86 378.1C1939.31 389.05 1919.09 402.35 1895.36 402.35C1849.65 402.35 1819.76 385.53 1819.76 350.71C1819.76 315.89 1843.06 287.34 1928.77 287.34H1946.79V275.99C1946.79 257.21 1940.64 241.17 1912.51 241.17C1884.38 241.17 1861.08 248.6 1841.74 256.82L1828.11 227.87C1853.16 219.65 1882.61 214.18 1913.82 214.18C1956.46 214.18 1986.34 232.18 1986.34 271.3V342.89C1986.34 356.97 1990.74 376.92 1993.37 397.66H1956.89ZM1947.22 311.6H1934.91C1879.53 311.6 1861.07 323.73 1861.07 349.16C1861.07 366.76 1877.77 375.37 1901.51 375.37C1922.17 375.37 1938.87 366.37 1947.22 354.25V311.61V311.6Z" fill="#7FC902"/>
<path d="M2054.46 175.06V397.65H2010.95V175.06H1929.63V144.55H2135.78V175.06H2054.46Z" fill="#7FC902"/>
<path d="M840.93 181.06C852.059 181.06 861.08 172.039 861.08 160.91C861.08 149.781 852.059 140.76 840.93 140.76C829.801 140.76 820.78 149.781 820.78 160.91C820.78 172.039 829.801 181.06 840.93 181.06Z" fill="#7FC902"/>
</svg>
