<svg width="10" height="47" viewBox="0 0 10 47" fill="none" xmlns="http://www.w3.org/2000/svg">
<line x1="3.49008" y1="16.5952" x2="9.23843" y2="16.5952" stroke="#1A1B1C" stroke-width="2"/>
<line x1="3.49008" y1="19.6747" x2="9.23843" y2="19.6747" stroke="#1A1B1C" stroke-width="2"/>
<line x1="3.49008" y1="22.7542" x2="9.23843" y2="22.7542" stroke="#1A1B1C" stroke-width="2"/>
<line x1="3.49008" y1="25.8336" x2="9.23843" y2="25.8336" stroke="#1A1B1C" stroke-width="2"/>
<line x1="3.49008" y1="28.9131" x2="9.23843" y2="28.9131" stroke="#1A1B1C" stroke-width="2"/>
<line x1="3.49008" y1="31.9926" x2="9.23843" y2="31.9926" stroke="#1A1B1C" stroke-width="2"/>
<line x1="3.49008" y1="35.0721" x2="9.23843" y2="35.0721" stroke="#1A1B1C" stroke-width="2"/>
<line x1="3.49008" y1="38.1515" x2="9.23843" y2="38.1515" stroke="#1A1B1C" stroke-width="2"/>
<line x1="3.49008" y1="41.231" x2="9.23843" y2="41.231" stroke="#1A1B1C" stroke-width="2"/>
<line x1="3.49008" y1="44.3105" x2="9.23843" y2="44.3105" stroke="#1A1B1C" stroke-width="2"/>
<path d="M2.02773 46.6681V44.1681H1.65573V43.7521H2.48773V46.6681H2.02773Z" fill="#1A1B1C"/>
<path d="M0.769571 43.7539V43.4219C1.45757 42.8179 2.18157 42.2899 2.18157 41.7179C2.18157 41.4139 2.04957 41.2059 1.70957 41.2059C1.38957 41.2059 1.21757 41.4299 1.20557 41.7579H0.765571C0.781571 41.1259 1.18957 40.8179 1.70557 40.8179C2.29757 40.8179 2.63357 41.1739 2.63357 41.6979C2.63357 42.4059 1.91357 42.9459 1.44557 43.3739H2.71357V43.7539H0.769571Z" fill="#1A1B1C"/>
<path d="M0.731165 38.7237C0.763165 38.2197 1.15517 37.9357 1.68717 37.9357C2.26717 37.9357 2.58317 38.2717 2.58317 38.6957C2.58317 39.0437 2.36317 39.2797 2.13517 39.3557V39.3717C2.43917 39.4637 2.63517 39.7157 2.63517 40.1197C2.63517 40.5837 2.30717 40.9357 1.69917 40.9357C1.14717 40.9357 0.719165 40.6477 0.691165 40.0757H1.13117C1.15117 40.3477 1.35117 40.5557 1.69517 40.5557C2.03517 40.5557 2.20317 40.3477 2.20317 40.0757C2.20317 39.6917 1.95517 39.5597 1.47917 39.5597H1.37517V39.1837H1.48317C1.89517 39.1797 2.14717 39.0597 2.14717 38.7477C2.14717 38.4957 1.98317 38.3277 1.67117 38.3277C1.35117 38.3277 1.20317 38.5197 1.17517 38.7237H0.731165Z" fill="#1A1B1C"/>
<path d="M1.91632 37.4297V36.8217H0.468321V36.4777L1.81232 34.5497H2.36432V36.4257H2.73632V36.8217H2.36432V37.4297H1.91632ZM0.992321 36.4257H1.93632V35.0137L0.992321 36.4257Z" fill="#1A1B1C"/>
<path d="M0.679478 31.6315H2.43948V32.0315H1.09948V32.8275C1.20748 32.6835 1.44348 32.5635 1.70348 32.5635C2.41948 32.5635 2.63948 33.0955 2.63948 33.5355C2.63948 34.1155 2.30748 34.5555 1.63148 34.5555C1.03148 34.5555 0.683478 34.2235 0.615478 33.7675H1.05948C1.11948 34.0155 1.32748 34.1755 1.63548 34.1755C2.02748 34.1755 2.20348 33.9075 2.20348 33.5475C2.20348 33.1675 2.01548 32.9515 1.63548 32.9515C1.36748 32.9515 1.18748 33.0995 1.11148 33.3155H0.679478V31.6315Z" fill="#1A1B1C"/>
<path d="M2.53576 29.0307H2.11576C2.05976 28.7947 1.91976 28.6627 1.63176 28.6627C1.21976 28.6627 1.00776 28.9427 0.995759 29.7067C1.13976 29.4667 1.42776 29.3387 1.73176 29.3387C2.25576 29.3387 2.62776 29.6907 2.62776 30.2987C2.62776 30.8507 2.29576 31.2707 1.67176 31.2707C0.823759 31.2707 0.603759 30.6747 0.603759 29.7467C0.603759 28.8347 0.907759 28.2827 1.63576 28.2827C2.20376 28.2827 2.48776 28.6427 2.53576 29.0307ZM1.63176 29.7227C1.33176 29.7227 1.04776 29.9027 1.04776 30.2907C1.04776 30.6507 1.25976 30.8907 1.64776 30.8907C1.98376 30.8907 2.19176 30.6627 2.19176 30.3187C2.19176 29.9707 2.01576 29.7227 1.63176 29.7227Z" fill="#1A1B1C"/>
<path d="M0.795884 25.4925H2.72388V25.8325L1.61188 28.3965H1.15188L2.27588 25.8805H0.795884V25.4925Z" fill="#1A1B1C"/>
<path d="M1.05538 23.7931C0.807384 23.6691 0.639384 23.4611 0.639384 23.1371C0.639384 22.7131 0.955384 22.3491 1.59938 22.3491C2.24338 22.3491 2.55938 22.7171 2.55938 23.1371C2.55938 23.4491 2.37938 23.6771 2.14338 23.7931C2.43938 23.9051 2.63538 24.1651 2.63538 24.5131C2.63538 25.0451 2.20338 25.3891 1.59938 25.3891C0.999384 25.3891 0.567384 25.0451 0.567384 24.5131C0.567384 24.1611 0.763384 23.9011 1.05538 23.7931ZM1.59938 23.6491C1.90338 23.6491 2.12338 23.4571 2.12338 23.1931C2.12338 22.8931 1.91938 22.7291 1.59938 22.7291C1.28738 22.7291 1.07938 22.8891 1.07938 23.1971C1.07938 23.4611 1.29538 23.6491 1.59938 23.6491ZM1.59938 23.9931C1.26338 23.9931 1.00338 24.1571 1.00338 24.4971C1.00338 24.7931 1.22738 25.0091 1.59938 25.0091C1.96738 25.0091 2.18738 24.7891 2.18738 24.4971C2.18738 24.1691 1.94338 23.9931 1.59938 23.9931Z" fill="#1A1B1C"/>
<path d="M0.723103 21.4456H1.1431C1.1951 21.7056 1.3671 21.8536 1.6711 21.8536C2.0351 21.8536 2.2191 21.6096 2.2191 20.8656C2.0871 21.0496 1.8351 21.1496 1.5711 21.1496C1.0591 21.1496 0.643103 20.8336 0.643103 20.2176C0.643103 19.6376 0.999103 19.2536 1.6111 19.2536C2.3631 19.2536 2.6151 19.7696 2.6151 20.7256C2.6151 21.7096 2.4071 22.2336 1.6431 22.2336C1.0391 22.2336 0.759103 21.8616 0.723103 21.4456ZM1.6511 20.7656C1.9751 20.7656 2.1671 20.5456 2.1671 20.2176C2.1671 19.8456 1.9551 19.6336 1.6231 19.6336C1.2831 19.6336 1.0791 19.8696 1.0791 20.2056C1.0791 20.5056 1.2471 20.7656 1.6511 20.7656Z" fill="#1A1B1C"/>
<path d="M2.02773 3.15814V0.658142H1.65573V0.242142H2.48773V3.15814H2.02773ZM0.551672 33.6621C0.551672 32.8301 0.775672 32.1901 1.59167 32.1901C2.40767 32.1901 2.63167 32.8301 2.63167 33.6621C2.63167 34.5101 2.40767 35.1501 1.59167 35.1501C0.775672 35.1501 0.551672 34.5101 0.551672 33.6621ZM2.18367 33.6621C2.18367 33.1181 2.12367 32.6061 1.59167 32.6061C1.05967 32.6061 0.999672 33.1181 0.999672 33.6621C0.999672 34.2341 1.05967 34.7341 1.59167 34.7341C2.12367 34.7341 2.18367 34.2341 2.18367 33.6621Z" fill="#1A1B1C"/>
</svg>
