<svg width="21" height="36" viewBox="0 0 21 36" fill="none" xmlns="http://www.w3.org/2000/svg">
<g clip-path="url(#clip0_126_970)">
<path d="M20.0578 16.8548C19.9921 17.0926 19.7622 17.2464 19.5323 17.4097C19.0314 17.7632 18.4361 18.028 17.8305 18.2642C13.5895 19.9178 8.3918 20.2317 4.06042 18.724C3.31526 18.464 2.59268 18.1485 1.9789 17.7268C1.73667 17.5603 1.12083 17.1766 1.05925 16.9135C0.983294 16.6043 1.82904 16.6757 2.10412 16.6249C2.13491 16.6186 2.16775 16.6138 2.19854 16.6075C2.6789 16.5219 3.17156 16.4696 3.66218 16.4347C6.96101 16.1937 10.3255 16.6836 13.5833 16.2096C15.1639 15.9797 16.7282 15.5215 18.3293 15.6341C18.7625 15.6642 19.2038 15.7403 19.5528 15.94C19.5795 15.9559 19.6041 15.9702 19.6287 15.9892C19.9367 16.1985 20.1399 16.5504 20.0557 16.8532L20.0578 16.8548Z" fill="#75B8EB"/>
<g style="mix-blend-mode:multiply" opacity="0.5">
<path d="M20.0578 16.8548C19.9921 17.0926 19.7622 17.2464 19.5323 17.4097C19.0314 17.7632 18.4361 18.028 17.8305 18.2642C13.5895 19.9178 8.3918 20.2317 4.06042 18.724C3.31526 18.464 2.59268 18.1485 1.9789 17.7268C1.73667 17.5603 1.12083 17.1767 1.05925 16.9135C0.983294 16.6043 1.82904 16.6757 2.10412 16.6249C2.13491 16.6186 2.16775 16.6138 2.19854 16.6075C2.3525 16.6281 2.50646 16.6471 2.65221 16.6598C3.40353 16.728 4.1528 16.793 4.90206 16.8548C5.74576 16.9246 6.58945 16.9896 7.4352 17.0466C11.5264 17.3225 15.8249 17.3938 19.5302 16.0257C19.5631 16.0146 19.5959 16.0019 19.6308 15.9876C19.9387 16.1969 20.1419 16.5488 20.0578 16.8516V16.8548Z" fill="#75B8EB"/>
</g>
<path d="M20.0701 16.7771L19.7273 20.5202L18.6804 31.9239C18.6229 32.5549 18.0728 33.0939 17.2948 33.2921C11.4854 34.7776 6.42526 33.9374 3.79358 33.2525C3.02379 33.0511 2.48801 32.5137 2.43259 31.8891L1.18449 18.288L1.05722 16.9151C1.52115 16.9563 1.98713 17.0498 2.44696 17.0879C3.31323 17.156 4.18567 17.1877 5.04989 17.2416C6.6798 17.3431 8.30355 17.5001 9.93552 17.554C12.9346 17.6523 15.9748 17.5445 18.9082 17.0118C19.2983 16.9404 19.6842 16.8627 20.0681 16.7771H20.0701Z" fill="#68CEFF"/>
<g style="mix-blend-mode:multiply" opacity="0.5">
<path d="M19.7273 20.5202L18.6804 31.9239C18.6229 32.5549 18.0727 33.0939 17.2947 33.2921C11.4854 34.7776 6.42524 33.9374 3.79357 33.2525C3.02377 33.0511 2.488 32.5137 2.43257 31.889L1.18448 18.288C1.72026 19.9003 2.14724 21.5349 2.45926 23.1821C2.71175 24.5122 2.89445 25.8535 3.34401 27.1519C3.79562 28.4487 4.53668 29.7186 5.76219 30.673C6.98565 31.6275 8.74489 32.2299 10.4692 32.0539C11.8035 31.9176 13.0106 31.3342 13.9405 30.5827C14.8704 29.8312 15.554 28.9196 16.1678 27.9953C17.7423 25.6283 18.939 23.1123 19.7273 20.5218V20.5202Z" fill="#68CEFF"/>
</g>
<g style="mix-blend-mode:screen" opacity="0.5">
<path d="M12.0992 18.0407C9.93965 18.0502 7.78628 17.8932 5.64111 17.6982C4.90211 17.6316 4.15079 17.5587 3.41795 17.6602C3.06282 17.7093 2.69742 17.8076 2.46135 18.0185C2.21502 18.2373 2.14317 18.548 2.19244 18.835C2.24375 19.1219 2.40387 19.3898 2.58246 19.6451C3.3071 20.6835 4.37249 21.611 5.74991 22.1231C6.83584 22.5273 8.05724 22.6557 9.26223 22.7033C10.305 22.7429 11.3704 22.7223 12.366 22.4814C13.5936 22.1833 14.6487 21.5634 15.591 20.8849C16.5332 20.2063 17.3872 19.4564 18.3745 18.8175C18.6455 18.6431 18.9309 18.4719 19.1135 18.2389C19.2552 18.0613 19.4666 17.4382 18.9924 17.4382C18.7358 17.4382 18.4402 17.527 18.1877 17.5666C17.9147 17.6079 17.6396 17.6475 17.3646 17.684C16.2438 17.8314 15.1147 17.9345 13.9816 17.9915C13.3555 18.0232 12.7294 18.0391 12.1012 18.0423L12.0992 18.0407Z" fill="#9CF1FF"/>
</g>
<g style="mix-blend-mode:screen" opacity="0.5">
<path d="M6.2405 18.0518C5.59798 17.9963 4.92877 17.9392 4.31704 18.1009C4.15898 18.1437 3.98449 18.223 3.97217 18.3514C3.95986 18.4846 4.12613 18.5845 4.27598 18.6511C5.46865 19.1853 6.84197 19.4517 8.21733 19.5198C9.5927 19.588 10.9763 19.4628 12.327 19.2519C13.0475 19.1394 13.7742 18.9983 14.4209 18.7224C14.583 18.6526 14.9423 18.4925 14.6487 18.3704C14.4065 18.2706 14.0678 18.3134 13.8091 18.326C12.1854 18.4037 10.5575 18.3578 8.93786 18.2579C8.03669 18.2024 7.13757 18.1295 6.2405 18.0502V18.0518Z" fill="#9CF1FF"/>
</g>
<g style="mix-blend-mode:screen" opacity="0.5">
<path d="M15.6751 18.2531C15.5868 18.2817 15.4986 18.3166 15.437 18.3736C15.3754 18.4307 15.3467 18.5147 15.3918 18.5797C15.4493 18.6622 15.591 18.6812 15.7121 18.686C15.8866 18.6923 16.0631 18.6923 16.2396 18.6844C16.5373 18.6701 16.8349 18.6336 17.1141 18.5544C17.2783 18.5084 17.7094 18.3895 17.7505 18.2341C17.8162 17.9725 16.9047 18.0359 16.7364 18.0518C16.3751 18.0867 16.0118 18.1438 15.6751 18.2547V18.2531Z" fill="#9CF1FF"/>
</g>
<path opacity="0.19" d="M10.5 0.395569C4.7481 0.395569 0.0841675 1.43725 0.0841675 2.72221C0.0841675 2.74508 0.0841675 2.76795 0.0882731 2.78874L2.01173 32.2595L2.12258 33.9332C2.12258 33.9332 2.22728 34.9728 2.71994 35.293C2.75074 35.3159 2.78563 35.3325 2.82053 35.3471C3.1305 35.4739 7.2915 35.975 10.5021 35.9106C13.7126 35.975 17.8757 35.4739 18.1836 35.3471C18.2677 35.3138 18.3416 35.2598 18.4073 35.1912C18.7953 34.794 18.8836 33.9312 18.8836 33.9312L18.9842 32.3884L20.9117 2.78874C20.9158 2.76587 20.9158 2.743 20.9158 2.72221C20.9179 1.43725 16.254 0.395569 10.5 0.395569Z" fill="#9CCAFF"/>
<path opacity="0.33" d="M20.8994 3.00289L19.0047 32.0391L18.9821 32.3905L18.8815 33.9332C18.8815 33.9332 18.8815 33.9374 18.8815 33.9436C18.8815 33.9478 18.8815 33.9519 18.8815 33.9561C18.8815 33.9623 18.8815 33.9665 18.8815 33.9748C18.8815 33.9811 18.8815 33.9894 18.8774 33.9998C18.8774 34.006 18.8774 34.0143 18.8733 34.0226C18.8733 34.0351 18.8692 34.0455 18.8672 34.0601C18.8672 34.0684 18.8631 34.0788 18.8631 34.0892C18.8631 34.1037 18.8589 34.1204 18.8548 34.137C18.8548 34.1474 18.8507 34.1578 18.8507 34.1682C18.8466 34.1869 18.8446 34.2035 18.8384 34.2243C18.8384 34.2306 18.8343 34.2389 18.8343 34.2472C18.8261 34.2888 18.8138 34.3324 18.8035 34.3782C18.8035 34.3907 18.7994 34.4031 18.7953 34.4156C18.7912 34.4364 18.783 34.4551 18.7768 34.478C18.7768 34.4842 18.7727 34.4925 18.7707 34.5009C18.7707 34.5092 18.7666 34.5175 18.7645 34.5258C18.7584 34.5466 18.7522 34.5653 18.744 34.5882C18.7378 34.6048 18.7317 34.6214 18.7255 34.6402C18.7194 34.661 18.7111 34.6797 18.7029 34.6984C18.6947 34.7171 18.6886 34.7358 18.6804 34.7566C18.6742 34.7753 18.666 34.794 18.6578 34.8127L18.627 34.873C18.6188 34.8897 18.6126 34.9042 18.6044 34.9229C18.5859 34.9583 18.5654 34.9915 18.5449 35.0248C18.5408 35.0311 18.5367 35.0373 18.5326 35.0435C18.5141 35.0706 18.4935 35.0976 18.4751 35.1205C18.4669 35.1309 18.4587 35.1413 18.4504 35.1496C18.4361 35.1641 18.4258 35.1808 18.4114 35.1932V35.1891C18.3458 35.2556 18.2739 35.3138 18.1877 35.3471C17.8798 35.4739 13.7167 35.975 10.5062 35.9106C7.2956 35.975 3.13461 35.4739 2.82463 35.3471C2.72815 35.3076 2.64399 35.239 2.57214 35.1558C2.56804 35.1516 2.55983 35.1433 2.55572 35.1392C2.53724 35.1163 2.52082 35.0913 2.50235 35.0685C2.49619 35.0581 2.49003 35.0498 2.48387 35.0414C2.46745 35.0186 2.45308 34.9915 2.43666 34.9666C2.43255 34.9541 2.42434 34.9437 2.41818 34.9354C2.40587 34.9105 2.3915 34.8834 2.37918 34.8585C2.37507 34.846 2.36892 34.8356 2.36276 34.8231C2.35044 34.7961 2.34018 34.7691 2.32991 34.742C2.32581 34.7296 2.31965 34.7192 2.31554 34.7067L2.28475 34.6256C2.28065 34.6131 2.27654 34.6007 2.27244 34.5882C2.26217 34.5611 2.25396 34.5341 2.2478 34.5092C2.2437 34.4967 2.23959 34.4842 2.23549 34.4717C2.23138 34.4593 2.22933 34.4468 2.22522 34.4343C2.22112 34.4198 2.21701 34.4052 2.21496 34.3948C2.21085 34.3844 2.2088 34.3719 2.20469 34.3615C2.20059 34.3366 2.19238 34.3116 2.18827 34.2888C2.18827 34.2784 2.18417 34.268 2.18211 34.2576C2.17801 34.2347 2.17185 34.2118 2.1698 34.191C2.16569 34.1807 2.16569 34.1723 2.16364 34.164C2.15953 34.1432 2.15748 34.1245 2.15337 34.1058C2.15337 34.0975 2.14927 34.0912 2.14927 34.0829C2.14516 34.0663 2.14311 34.0497 2.14106 34.0351C2.14106 34.0268 2.14106 34.0226 2.13695 34.0143C2.13695 34.0018 2.13285 33.9894 2.13285 33.979C2.13285 33.9727 2.13285 33.9686 2.13285 33.9623C2.13285 33.9582 2.13285 33.9499 2.13285 33.9457C2.13285 33.9374 2.13285 33.9332 2.13285 33.9332L2.022 32.2595L2.00147 31.9497L0.0923767 2.86774C0.123168 2.96546 0.16833 3.05902 0.229913 3.14219C0.236072 3.14843 0.24223 3.15675 0.250441 3.16506L0.254547 3.16922C0.307919 3.22744 0.363344 3.2815 0.416717 3.33972C0.416717 3.33972 0.416717 3.33972 0.420822 3.34388C0.420822 3.34388 0.424928 3.34388 0.424928 3.34803C0.429034 3.34803 0.453667 3.36467 0.484459 3.38546L2.43255 31.1949C2.49003 32.0141 3.02581 32.719 3.79355 32.983C6.42522 33.8812 11.4853 34.9832 17.2947 33.035C18.0727 32.7751 18.6208 32.0682 18.6804 31.2406L20.6428 3.20457C20.7188 3.16091 20.7927 3.111 20.8543 3.04447C20.8686 3.03199 20.885 3.01744 20.8994 3.00496V3.00289Z" fill="#A7C0FF"/>
<path opacity="0.33" d="M9.22316 34.9957C8.94603 35.1807 8.59911 35.2057 8.26861 35.2202C6.94251 35.2743 5.61231 35.2306 4.29237 35.0913C3.69295 35.0269 3.07917 34.9395 2.5475 34.6505C2.43254 34.5882 2.32375 34.5154 2.21905 34.4364C2.21495 34.4218 2.21084 34.4073 2.20879 34.3969C2.20468 34.3865 2.20263 34.374 2.19853 34.3636C2.19442 34.3387 2.18621 34.3137 2.1821 34.2908C2.1821 34.2804 2.178 34.27 2.17595 34.2596C2.17184 34.2368 2.16568 34.2139 2.16363 34.1931C2.15952 34.1827 2.15952 34.1744 2.15747 34.1661C2.15336 34.1453 2.15131 34.1266 2.14721 34.1079C2.14721 34.0995 2.1431 34.0933 2.1431 34.085C2.139 34.0684 2.13694 34.0517 2.13489 34.0372C2.13489 34.0289 2.13489 34.0247 2.13078 34.0164C2.13078 34.0039 2.12668 33.9914 2.12668 33.981C2.12668 33.9748 2.12668 33.9706 2.12668 33.9644C2.12668 33.9602 2.12668 33.9519 2.12668 33.9478C2.12668 33.9394 2.12668 33.9353 2.12668 33.9353L2.01583 32.2615L1.9953 31.9517C2.06715 32.037 2.14105 32.1181 2.22111 32.1971C2.93137 32.9123 3.84691 33.3968 4.78914 33.7211C6.13577 34.1869 7.56246 34.3657 8.94193 34.7212C9.08357 34.7587 9.25806 34.8522 9.22521 34.9957H9.22316Z" fill="#A7FFFF"/>
<path opacity="0.33" d="M19.0047 32.0391L18.9821 32.3904L18.8815 33.9332C18.8815 33.9332 18.8815 33.9374 18.8815 33.9436C18.8815 33.9478 18.8815 33.9519 18.8815 33.9561C18.8815 33.9623 18.8815 33.9665 18.8815 33.9748C18.8815 33.981 18.8815 33.9894 18.8774 33.9998C18.8774 34.006 18.8774 34.0143 18.8733 34.0226C18.8733 34.0351 18.8692 34.0455 18.8672 34.0601C18.8672 34.0684 18.863 34.0788 18.863 34.0892C18.863 34.1037 18.8589 34.1204 18.8548 34.137C18.8548 34.1474 18.8507 34.1578 18.8507 34.1682C18.8466 34.1869 18.8446 34.2035 18.8384 34.2243C18.8384 34.2305 18.8343 34.2389 18.8343 34.2472C18.8261 34.2888 18.8138 34.3324 18.8035 34.3782C18.8035 34.3907 18.7994 34.4031 18.7953 34.4156C18.7912 34.4364 18.783 34.4551 18.7768 34.478C18.7768 34.4842 18.7727 34.4925 18.7707 34.5008C18.6947 34.5549 18.6167 34.6048 18.5346 34.6485C18.0029 34.9396 17.3891 35.0269 16.7897 35.0893C15.4698 35.2265 14.1396 35.2722 12.8114 35.2182C12.4809 35.2057 12.134 35.1787 11.8569 34.9936C11.822 34.8502 11.9985 34.7566 12.1402 34.7192C13.5196 34.3636 14.9463 34.1848 16.293 33.7191C17.2331 33.3926 18.1487 32.9103 18.861 32.195C18.9103 32.1451 18.9616 32.0931 19.0088 32.0391H19.0047Z" fill="#A7FFFF"/>
<path d="M20.9179 2.72221C20.9179 2.74508 20.9179 2.76795 20.9138 2.78874C20.7557 4.0425 16.1554 5.05092 10.5021 5.05092C4.84868 5.05092 0.246338 4.04458 0.0882731 2.78874C0.0841675 2.76587 0.0841675 2.743 0.0841675 2.72221C0.0841675 1.43725 4.7481 0.395569 10.5 0.395569C16.2519 0.395569 20.9158 1.43725 20.9158 2.72221H20.9179Z" stroke="white" stroke-width="0.81" stroke-miterlimit="10"/>
<path d="M10.5 0.395569C4.7481 0.395569 0.0841675 1.43725 0.0841675 2.72221C0.0841675 2.74508 0.0841675 2.76795 0.0882731 2.78874L2.01173 32.2595L2.12258 33.9332C2.12258 33.9332 2.22728 34.9728 2.71994 35.293C2.75074 35.3159 2.78563 35.3325 2.82053 35.3471C3.1305 35.4739 7.2915 35.975 10.5021 35.9106C13.7126 35.975 17.8757 35.4739 18.1836 35.3471C18.2677 35.3138 18.3416 35.2598 18.4073 35.1912C18.7953 34.794 18.8836 33.9312 18.8836 33.9312L18.9842 32.3884L20.9117 2.78874C20.9158 2.76587 20.9158 2.743 20.9158 2.72221C20.9179 1.43725 16.254 0.395569 10.5 0.395569Z" stroke="white" stroke-width="0.81" stroke-miterlimit="10"/>
<path opacity="0.19" d="M19.9161 3.71814L18.354 32.2137C18.1076 32.5921 17.7381 32.8853 17.2947 33.0329C16.5249 33.2908 15.7654 33.4966 15.0244 33.6546L16.3484 4.64755C19.3537 4.54983 19.9161 3.71606 19.9161 3.71606V3.71814Z" fill="#9CCAFF"/>
<path opacity="0.19" d="M5.95513 33.5881C5.38651 33.4592 4.8692 33.3199 4.40733 33.1785C4.19178 33.112 3.98651 33.0475 3.7956 32.981C3.71143 32.9519 3.63343 32.9186 3.55542 32.8791L1.46158 3.88034L2.5475 4.14856L4.43401 4.61638L5.95513 33.5902V33.5881Z" fill="#9CCAFF"/>
<path opacity="0.19" d="M4.40733 33.1785C4.19178 33.112 3.98651 33.0475 3.7956 32.981C3.71143 32.9519 3.63343 32.9186 3.55542 32.8791L1.46158 3.88034L2.5475 4.14856C2.64809 5.2443 3.95777 25.8701 4.40733 33.1785Z" fill="#9CCAFF"/>
</g>
<defs>
<clipPath id="clip0_126_970">
<rect width="21" height="36" fill="white"/>
</clipPath>
</defs>
</svg>
