<svg xmlns="http://www.w3.org/2000/svg" width="19.335" height="19.335" viewBox="0 0 19.335 19.335">
  <g id="information" transform="translate(81.667 -511.333)">
    <g id="Group_766" data-name="Group 766" transform="translate(-323.667 511.333)">
      <g id="Group_765" data-name="Group 765" transform="translate(242)">
        <path id="Path_2501" data-name="Path 2501" d="M251.667,0a9.67,9.67,0,0,0-8.436,14.392l-1.176,3.529a1.073,1.073,0,0,0,1.279,1.382l3.989-1A9.668,9.668,0,1,0,251.667,0Zm1.074,13.964a1.074,1.074,0,1,1-2.148,0v-4.3a1.074,1.074,0,1,1,2.148,0Zm-1.074-6.445a1.074,1.074,0,1,1,1.074-1.074A1.074,1.074,0,0,1,251.667,7.519Z" transform="translate(-242)" fill="#7fc902"/>
      </g>
    </g>
  </g>
</svg>
