<svg xmlns="http://www.w3.org/2000/svg" version="1.1" xmlns:xlink="http://www.w3.org/1999/xlink" xmlns:svgjs="http://svgjs.com/svgjs" width="512" height="512" x="0" y="0" viewBox="0 0 36 36" style="enable-background:new 0 0 512 512" xml:space="preserve" class=""><g><path d="M32.05,14.46a10.21,10.21,0,0,0,1.77-5.77V6.06a1.16,1.16,0,0,0-1.15-1.15H30a10.27,10.27,0,0,0-6.57,2.36,7.06,7.06,0,0,0-8.75-.35,4.57,4.57,0,0,0-4.4-3.32H7.71A4.57,4.57,0,0,0,3.19,8.82L4,14.44a3.44,3.44,0,0,0-2,3.1V21a9.15,9.15,0,0,0,8.18,9.09,3.43,3.43,0,0,0,3.25,2.34h9.14a3.43,3.43,0,0,0,3.25-2.34A9.13,9.13,0,0,0,34,21V17.54A3.43,3.43,0,0,0,32.05,14.46ZM30,7.2h1.49V8.69a7.92,7.92,0,0,1-2.12,5.42H25.77a7.29,7.29,0,0,0,.16-1.48,7,7,0,0,0-1-3.61A8,8,0,0,1,30,7.2Zm-11.17.66a4.78,4.78,0,0,1,4.78,4.77,4.61,4.61,0,0,1-.27,1.48H21.56a3.78,3.78,0,0,0,.06-.47A4.78,4.78,0,0,0,19.92,10a1.15,1.15,0,0,0-1.61.14,1.13,1.13,0,0,0,.14,1.61,2.5,2.5,0,0,1,.88,1.91,2.42,2.42,0,0,1,0,.47H14.09l.52-3.62A4.75,4.75,0,0,1,18.87,7.86ZM6,6.67a2.26,2.26,0,0,1,1.72-.78h2.61A2.27,2.27,0,0,1,12.58,8.5l-.24,1.67h-2a1.15,1.15,0,0,0,0,2.29H12l-.24,1.65H6.25L5.45,8.5A2.31,2.31,0,0,1,6,6.67ZM31.71,21a6.85,6.85,0,0,1-6.85,6.86A1.15,1.15,0,0,0,23.71,29a1.13,1.13,0,0,1-1.14,1.14H13.43A1.14,1.14,0,0,1,12.29,29a1.15,1.15,0,0,0-1.15-1.14A6.86,6.86,0,0,1,4.29,21V17.54A1.14,1.14,0,0,1,5.43,16.4H30.57a1.14,1.14,0,0,1,1.14,1.14Z" fill="#000000" data-original="#000000" class=""></path></g></svg>