<svg xmlns="http://www.w3.org/2000/svg" width="22.089" height="16.567" viewBox="0 0 22.089 16.567">
  <path id="Icon_material-contact-mail" data-name="Icon material-contact-mail" d="M19.328,9.1v-.92l-2.761,1.841L13.806,8.182V9.1l2.761,1.841Zm.92-4.6H1.841A1.846,1.846,0,0,0,0,6.341V19.226a1.846,1.846,0,0,0,1.841,1.841H20.249a1.838,1.838,0,0,0,1.832-1.841l.009-12.885A1.846,1.846,0,0,0,20.249,4.5ZM7.363,7.261A2.761,2.761,0,1,1,4.6,10.022,2.757,2.757,0,0,1,7.363,7.261Zm5.522,11.045H1.841v-.92c0-1.841,3.682-2.853,5.522-2.853s5.522,1.012,5.522,2.853Zm7.363-5.522H12.885V7.261h7.363Z" transform="translate(0 -4.5)" fill="#7fc902"/>
</svg>
