<svg xmlns="http://www.w3.org/2000/svg" width="24.609" height="29.475" viewBox="0 0 24.609 29.475">
  <g id="doctor" transform="translate(-7.561 -1.641)">
    <path id="Path_72" data-name="Path 72" d="M27.94,18.058a4.952,4.952,0,0,1-4.786-4.319,1.609,1.609,0,0,1-.9-.572,1.811,1.811,0,0,1-.337-1.233,1.7,1.7,0,0,1,.4-1.322,1.244,1.244,0,0,1,.3-.226,6.536,6.536,0,0,1-.974-3.713,3.635,3.635,0,0,1,3.674-3.381,3.623,3.623,0,0,1,1.3-.96,4.59,4.59,0,0,1,2.95-.164,5.269,5.269,0,0,1,3.8,2.851A7.037,7.037,0,0,1,33.04,10.3a1.259,1.259,0,0,1,.449.258,1.648,1.648,0,0,1,.459,1.381,1.808,1.808,0,0,1-.337,1.233,1.611,1.611,0,0,1-.9.572A4.946,4.946,0,0,1,27.94,18.058ZM23.3,11.043a.556.556,0,0,0-.4.141.979.979,0,0,0-.168.735.422.422,0,0,1,0,.082,1.015,1.015,0,0,0,.172.668.938.938,0,0,0,.658.312.411.411,0,0,1,.361.373c.014.153.378,3.763,4.015,3.882,3.616-.119,3.983-3.729,4-3.883a.411.411,0,0,1,.361-.372.937.937,0,0,0,.658-.312A1.017,1.017,0,0,0,33.128,12a.43.43,0,0,1,0-.08.979.979,0,0,0-.185-.755.623.623,0,0,0-.446-.117.411.411,0,0,1-.434-.6c.015-.029,1.521-2.886.553-5.106a4.5,4.5,0,0,0-3.251-2.381,3.764,3.764,0,0,0-2.414.123,2.764,2.764,0,0,0-1.107.866.407.407,0,0,1-.365.164A2.827,2.827,0,0,0,22.46,6.757h0a5.432,5.432,0,0,0,1.182,3.594.411.411,0,0,1,.078.452.389.389,0,0,1-.389.243Z" transform="translate(-8.085)" fill="#414042" stroke="#414042" stroke-width="0.7"/>
    <path id="Path_73" data-name="Path 73" d="M34.238,16.1a.411.411,0,0,1-.411-.394c0-.106-.132-2.589-1.986-2.828A6.257,6.257,0,0,1,27.069,11.5a4.4,4.4,0,0,0-1.5,4.147.411.411,0,0,1-.817.074c-.341-3.748,2.066-5.049,2.169-5.1a.411.411,0,0,1,.474.067,5.488,5.488,0,0,0,4.367,1.378.459.459,0,0,1,.114,0c2.089.217,2.728,2.462,2.773,3.616a.411.411,0,0,1-.394.427Z" transform="translate(-9.901 -5.049)" fill="#414042" stroke="#414042" stroke-width="0.7"/>
    <path id="Path_74" data-name="Path 74" d="M31.409,57.021H8.322a.411.411,0,0,1-.411-.411V52.029a5.469,5.469,0,0,1,5.466-5.458h.789a.411.411,0,1,1,0,.822h-.789a4.646,4.646,0,0,0-4.644,4.636V56.2H31v-4.17a4.641,4.641,0,0,0-4.636-4.636h-.846a.411.411,0,0,1,0-.822h.846a5.466,5.466,0,0,1,5.458,5.458V56.61A.411.411,0,0,1,31.409,57.021Z" transform="translate(0 -26.255)" fill="#414042" stroke="#414042" stroke-width="0.7"/>
    <path id="Path_75" data-name="Path 75" d="M39.753,55.046a.411.411,0,0,1-.406-.472L41.01,43.567a.411.411,0,0,1,.525-.332l2.87.865a.411.411,0,0,1,.25.575l-1.141,2.289.662.743a.411.411,0,0,1,.041.489L40.1,54.851A.411.411,0,0,1,39.753,55.046Zm2-10.887-1.292,8.553,2.9-4.685-.642-.721a.411.411,0,0,1-.061-.457l1.047-2.1Z" transform="translate(-18.514 -24.28)" fill="#414042" stroke="#414042" stroke-width="0.7"/>
    <path id="Path_76" data-name="Path 76" d="M26.454,55.048a.411.411,0,0,1-.35-.195L21.989,48.2a.411.411,0,0,1,.041-.489l.662-.743-1.141-2.289a.411.411,0,0,1,.25-.575l2.87-.865a.411.411,0,0,1,.524.332L26.86,54.577a.411.411,0,0,1-.405.471Zm-3.6-7.02,2.9,4.685-1.292-8.552-1.95.588,1.047,2.1a.411.411,0,0,1-.061.457Z" transform="translate(-8.01 -24.282)" fill="#414042" stroke="#414042" stroke-width="0.7"/>
    <path id="Path_77" data-name="Path 77" d="M32.671,51.948a22.282,22.282,0,0,1-2.658-.161.411.411,0,1,1,.1-.816,20.719,20.719,0,0,0,5.058,0,.411.411,0,1,1,.1.815A20.753,20.753,0,0,1,32.671,51.948Z" transform="translate(-12.799 -28.845)" fill="#414042" stroke="#414042" stroke-width="0.7"/>
    <path id="Path_78" data-name="Path 78" d="M42.87,40.563a.411.411,0,0,1-.329-.166,5.966,5.966,0,0,1-.732-2.646.411.411,0,0,1,.386-.434.415.415,0,0,1,.434.386,5.247,5.247,0,0,0,.572,2.2.411.411,0,0,1-.329.655Z" transform="translate(-19.967 -20.804)" fill="#414042" stroke="#414042" stroke-width="0.7"/>
    <path id="Path_79" data-name="Path 79" d="M28.908,40.562a.411.411,0,0,1-.329-.655,5.24,5.24,0,0,0,.572-2.2.412.412,0,1,1,.822.048,6,6,0,0,1-.732,2.646A.411.411,0,0,1,28.908,40.562Z" transform="translate(-12.127 -20.803)" fill="#414042" stroke="#414042" stroke-width="0.7"/>
    <path id="Path_80" data-name="Path 80" d="M54.759,51.3a.411.411,0,0,1-.411-.4c-.077-2.676-1.094-3.518-1.1-3.526a.414.414,0,0,1-.072-.575.408.408,0,0,1,.569-.079c.054.041,1.338,1.038,1.428,4.157a.411.411,0,0,1-.4.422Z" transform="translate(-26.611 -26.297)" fill="#414042" stroke="#414042" stroke-width="0.7"/>
    <path id="Path_81" data-name="Path 81" d="M54.831,59.231a1.625,1.625,0,1,1,1.624-1.624,1.625,1.625,0,0,1-1.624,1.624Zm0-2.427a.8.8,0,1,0,.8.8A.8.8,0,0,0,54.831,56.8Z" transform="translate(-26.681 -31.799)" fill="#414042" stroke="#414042" stroke-width="0.7"/>
    <path id="Path_82" data-name="Path 82" d="M15.464,51.335a.411.411,0,0,1-.411-.382c-.224-3.154,1.514-4.162,1.588-4.2a.411.411,0,0,1,.4.716c-.062.037-1.356.835-1.172,3.43a.411.411,0,0,1-.381.439Z" transform="translate(-4.195 -26.329)" fill="#414042" stroke="#414042" stroke-width="0.7"/>
    <path id="Path_83" data-name="Path 83" d="M12.808,59.957a.411.411,0,0,1-.329-.162,2.569,2.569,0,0,1-.435-.883,2.471,2.471,0,0,1,1.615-3.079,2.3,2.3,0,0,1,1.767.219,2.638,2.638,0,0,1,1.282,2.717.411.411,0,1,1-.811-.135,1.817,1.817,0,0,0-.874-1.866,1.487,1.487,0,0,0-1.142-.145,1.65,1.65,0,0,0-1.047,2.07,1.754,1.754,0,0,0,.3.6.411.411,0,0,1-.327.66Z" transform="translate(-2.37 -31.661)" fill="#414042" stroke="#414042" stroke-width="0.7"/>
    <path id="Path_84" data-name="Path 84" d="M21.322,62.683a.328.328,0,0,1-.049,0l-.463-.055a.411.411,0,1,1,.1-.817l.463.055a.411.411,0,0,1-.048.819Z" transform="translate(-7.384 -35.229)" fill="#414042" stroke="#414042" stroke-width="0.7"/>
    <path id="Path_85" data-name="Path 85" d="M13.469,64.56a.411.411,0,0,1-.143-.8l.493-.182a.411.411,0,0,1,.288.771l-.493.182A.411.411,0,0,1,13.469,64.56Z" transform="translate(-3.032 -36.26)" fill="#414042" stroke="#414042" stroke-width="0.7"/>
  </g>
</svg>
