<svg xmlns="http://www.w3.org/2000/svg" width="23.201" height="18.128" viewBox="0 0 23.201 18.128">
  <path id="Icon_awesome-exchange-alt" data-name="Icon awesome-exchange-alt" d="M0,9.012V8.287A1.088,1.088,0,0,1,1.088,7.2H17.4V5.024a1.088,1.088,0,0,1,1.857-.769l3.625,3.625a1.088,1.088,0,0,1,0,1.538l-3.625,3.625a1.088,1.088,0,0,1-1.857-.769V10.1H1.088A1.088,1.088,0,0,1,0,9.012ZM22.114,15.9H5.8V13.725a1.088,1.088,0,0,0-1.857-.769L.319,16.581a1.088,1.088,0,0,0,0,1.538l3.625,3.625A1.088,1.088,0,0,0,5.8,20.975V18.8H22.114A1.088,1.088,0,0,0,23.2,17.713v-.725A1.088,1.088,0,0,0,22.114,15.9Z" transform="translate(0 -3.936)" fill="#7fc902"/>
</svg>
