<svg id="Group_762" data-name="Group 762" xmlns="http://www.w3.org/2000/svg" width="26.133" height="26.133" viewBox="0 0 26.133 26.133">
  <g id="Group_761" data-name="Group 761">
    <path id="Path_2497" data-name="Path 2497" d="M223.019,343.22a1.37,1.37,0,0,0,0,2.74,1.37,1.37,0,0,0,0-2.74Z" transform="translate(-210.353 -325.702)" fill="#7fc902"/>
    <path id="Path_2498" data-name="Path 2498" d="M187.527,140c-2.4,0-3.5,1.423-3.5,2.384a1.02,1.02,0,0,0,1.067,1.014c.961,0,.569-1.37,2.384-1.37.89,0,1.6.391,1.6,1.21,0,.961-1,1.512-1.583,2.01a3.257,3.257,0,0,0-1.192,2.7c0,.925.249,1.192.979,1.192.872,0,1.05-.391,1.05-.729a2.234,2.234,0,0,1,1-2.224c.48-.374,1.993-1.583,1.993-3.256S189.8,140,187.527,140Z" transform="translate(-174.629 -132.856)" fill="#7fc902"/>
    <path id="Path_2499" data-name="Path 2499" d="M13.066,0A13.059,13.059,0,0,0,0,13.066V25.112a1.021,1.021,0,0,0,1.021,1.021H13.066A13.066,13.066,0,0,0,13.066,0Zm0,24.091H2.042V13.066A11.025,11.025,0,1,1,13.066,24.091Z" fill="#7fc902"/>
  </g>
</svg>
