<svg width="19" height="16" viewBox="0 0 19 16" fill="none" xmlns="http://www.w3.org/2000/svg">
<path d="M8.75842 2.07056L9.14286 2.53287L9.5273 2.07056C10.1512 1.3203 11.2124 0.5 12.9128 0.5C15.7832 0.5 17.7857 3.18376 17.7857 5.7635C17.7857 6.62734 17.3656 7.62473 16.6441 8.68206C15.9294 9.72922 14.958 10.779 13.9443 11.7362C11.9179 13.6494 9.77758 15.1412 9.34243 15.4385L9.62413 15.8508L9.34276 15.4383C9.28246 15.4794 9.21282 15.5 9.14286 15.5C9.07302 15.5 9.00352 15.4795 8.94329 15.4385C8.50813 15.1412 6.36779 13.6494 4.34143 11.7362C3.3277 10.779 2.35627 9.72922 1.64165 8.68206C0.920077 7.62473 0.5 6.62734 0.5 5.7635C0.5 3.1837 2.50223 0.5 5.37234 0.5C7.07355 0.5 8.13453 1.32032 8.75842 2.07056Z" stroke="#7FC902"/>
</svg>
