<svg width="24" height="24" viewBox="0 0 24 24" fill="none" xmlns="http://www.w3.org/2000/svg">
<path fill-rule="evenodd" clip-rule="evenodd" d="M18.25 7C18.25 10.4519 15.4519 13.25 12 13.25C8.54813 13.25 5.75 10.4519 5.75 7C5.75 3.54813 8.54813 0.75 12 0.75C15.4519 0.75 18.25 3.54813 18.25 7ZM17 7C17 8.32608 16.4732 9.59785 15.5355 10.5355C14.5979 11.4732 13.3261 12 12 12C10.6739 12 9.40215 11.4732 8.46447 10.5355C7.52678 9.59785 7 8.32608 7 7C7 5.67392 7.52678 4.40215 8.46447 3.46447C9.40215 2.52678 10.6739 2 12 2C13.3261 2 14.5979 2.52678 15.5355 3.46447C16.4732 4.40215 17 5.67392 17 7ZM8.19625 15.0344L8.20312 15.0481L8.25 15.14H15.5931C15.7362 14.8688 16.0606 14.4363 16.375 14.5081C17.0812 14.6688 17.7925 14.8925 18.4756 15.1681L18.4963 15.1581L18.5031 15.1719L18.5081 15.1812C21.08 16.2262 23.25 17.9975 23.25 19.8563V23.25H0.75V19.8563C0.75 17.4969 4.2475 15.2769 7.625 14.5081C7.90063 14.4456 8.06437 14.7706 8.19625 15.0344ZM17.44 16.1144C17.1719 16.0204 16.9007 15.9355 16.6269 15.86L16.3481 16.39H7.49562L7.23687 15.8981L7.01187 15.9656C7.00729 16.0065 7.00396 16.0531 7.00187 16.1056C6.99375 16.3212 7.01 16.5769 7.04562 16.8369C7.08195 17.1081 7.14048 17.3759 7.22063 17.6375C7.65967 17.6895 8.06621 17.895 8.36845 18.2177C8.67069 18.5403 8.84919 18.9594 8.87243 19.4009C8.89567 19.8424 8.76215 20.2779 8.49545 20.6305C8.22875 20.9832 7.84603 21.2302 7.41488 21.328C6.98372 21.4258 6.53187 21.3681 6.13912 21.1651C5.74636 20.9622 5.43797 20.6269 5.26841 20.2186C5.09885 19.8103 5.07902 19.3552 5.21242 18.9337C5.34583 18.5122 5.62389 18.1514 5.9975 17.915L5.9925 17.8975C5.90904 17.6053 5.847 17.3074 5.80687 17.0062C5.78037 16.8138 5.76285 16.6203 5.75437 16.4263C4.98187 16.7563 4.26125 17.155 3.6575 17.595C2.45625 18.4725 2 19.2925 2 19.8563V22H22V19.8563C22 19.2919 21.5437 18.4719 20.3425 17.5956C19.8186 17.2191 19.2608 16.8923 18.6763 16.6194C18.6507 16.9581 18.5989 17.2943 18.5212 17.625H18.875C18.991 17.6251 19.1048 17.6574 19.2035 17.7185C19.3021 17.7795 19.3819 17.8668 19.4338 17.9706L20.0588 19.2206C20.1025 19.3075 20.125 19.4031 20.125 19.5V20.75C20.125 20.9158 20.0592 21.0747 19.9419 21.1919C19.8247 21.3092 19.6658 21.375 19.5 21.375H18.25V20.125H18.875V19.6475L18.4888 18.875H16.7612L16.375 19.6475V20.125H17V21.375H15.75C15.5842 21.375 15.4253 21.3092 15.3081 21.1919C15.1908 21.0747 15.125 20.9158 15.125 20.75V19.5C15.125 19.4031 15.1475 19.3075 15.1913 19.2206L15.8163 17.9706C15.8681 17.8668 15.9479 17.7795 16.0465 17.7185C16.1452 17.6574 16.259 17.6251 16.375 17.625H17.2262L17.2494 17.5475C17.3081 17.3469 17.3606 17.0975 17.3962 16.8375C17.4312 16.58 17.4475 16.3281 17.44 16.1144ZM7.625 19.5C7.625 19.8587 7.33625 20.1344 7 20.1344C6.66375 20.1344 6.375 19.8594 6.375 19.5C6.375 19.1413 6.66375 18.8656 7 18.8656C7.33625 18.8656 7.625 19.1406 7.625 19.5Z" fill="white"/>
</svg>
