<svg xmlns="http://www.w3.org/2000/svg" width="21.089" height="23.433" viewBox="0 0 21.089 23.433">
  <g id="home" transform="translate(73.667 -207.261)">
    <g id="Group_43" data-name="Group 43" transform="translate(-73.667 207.261)">
      <path id="Path_67" data-name="Path 67" d="M41.18,7.691,33.537.642a2.466,2.466,0,0,0-3.319,0L22.575,7.691a4.209,4.209,0,0,0-1.242,2.828V21.092a2.345,2.345,0,0,0,2.343,2.34h7.048V16.45h2.331v6.983h7.02a2.343,2.343,0,0,0,2.347-2.34V10.518A4.2,4.2,0,0,0,41.18,7.691Zm-1.1,13.4H35.4V14.107H28.382v6.983q-4.705,0-4.705,0V10.518a1.936,1.936,0,0,1,.488-1.105l7.643-7.049a.13.13,0,0,1,.141,0l7.643,7.049a1.93,1.93,0,0,1,.488,1.105Q40.079,21.089,40.075,21.089Z" transform="translate(-21.333 0)" fill="#414042"/>
    </g>
  </g>
</svg>
