<svg width="24" height="24" viewBox="0 0 24 24" fill="none" xmlns="http://www.w3.org/2000/svg">
<g id="1 - Light / info-circle">
<path id="info-circle-Light" d="M12 2.25C6.62393 2.25 2.25 6.62393 2.25 12C2.25 17.3761 6.62393 21.75 12 21.75C17.3761 21.75 21.75 17.3761 21.75 12C21.75 6.62393 17.3761 2.25 12 2.25ZM12 20.25C7.45107 20.25 3.75 16.5489 3.75 12C3.75 7.45107 7.45107 3.75 12 3.75C16.5489 3.75 20.25 7.45107 20.25 12C20.25 16.5489 16.5489 20.25 12 20.25ZM12 9C12.5521 9 13 8.55207 13 8C13 7.44793 12.5521 7 12 7C11.4479 7 11 7.44793 11 8C11 8.55207 11.4479 9 12 9ZM12.75 16V12C12.75 11.5846 12.4137 11.25 12 11.25C11.5859 11.25 11.25 11.5859 11.25 12V16C11.25 16.4141 11.5859 16.75 12 16.75C12.4141 16.75 12.75 16.4141 12.75 16Z" fill="#B2DA6C" stroke="#B2DA6C" stroke-width="0.5"/>
</g>
</svg>
