<?xml version="1.0" encoding="utf-8"?>
<!-- Generator: Adobe Illustrator 26.3.0, SVG Export Plug-In . SVG Version: 6.00 Build 0)  -->
<svg version="1.1" id="Layer_1" xmlns="http://www.w3.org/2000/svg" xmlns:xlink="http://www.w3.org/1999/xlink" x="0px" y="0px"
	 viewBox="0 0 1080 1080" style="enable-background:new 0 0 1080 1080;" xml:space="preserve">
<style type="text/css">
	.st0{fill:none;stroke:#000000;stroke-width:11.4216;stroke-miterlimit:10;}
	.st1{fill:none;stroke:#000000;stroke-width:7.4884;stroke-miterlimit:10;}
	.st2{fill:none;stroke:#000000;stroke-width:9.518;stroke-miterlimit:10;}
	.st3{fill:none;stroke:#000000;stroke-width:24.7469;stroke-miterlimit:10;}
	.st4{fill:none;stroke:#000000;stroke-width:5.7108;stroke-miterlimit:10;}
	.st5{fill:none;stroke:#000000;stroke-width:15.2289;stroke-miterlimit:10;}
	.st6{fill:none;stroke:#000000;stroke-width:15.2289;stroke-linecap:round;stroke-miterlimit:10;}
</style>
<g>
	<path class="st0" d="M767.4,313.2v372.9c-8.4-12.3-18.8-23.5-30.8-33.2c-7.5-6.1-16.1-10.4-25.4-12.9c-22.6-6.4-48.4-2.3-66.8,12.5
		c-0.3,0.2-0.6,0.4-0.8,0.7c-0.3-0.2-0.6-0.5-0.8-0.7c-25.9-20.8-66.3-20.5-92.1,0.4c-33.6,27.2-54.6,65.8-54.6,108.6
		c0,14.5,2.4,28.6,6.9,41.9c7.7,22.7,21.5,43.2,39.8,60H310.5V313.2h111.4v68.5h230.3v-68.5H767.4z"/>
	<path class="st1" d="M711.2,356v283.9c-22.6-6.4-48.4-2.3-66.8,12.5c-0.3,0.2-0.6,0.4-0.8,0.7c-0.3-0.2-0.6-0.5-0.8-0.7
		c-25.9-20.8-66.3-20.5-92.1,0.4c-33.6,27.2-54.6,65.8-54.6,108.6c0,14.5,2.4,28.6,6.9,41.9H356.2V356h65.7v25.7h230.3V356H711.2z"
		/>
	<rect x="421.9" y="280.8" class="st0" width="230.3" height="100.9"/>
	<path class="st2" d="M585.6,269.4c0,3.9-0.4,7.7-1.3,11.4H484.1c-0.9-3.7-1.3-7.5-1.3-11.4c0-28.4,23-51.4,51.4-51.4
		C562.6,218,585.6,241,585.6,269.4z"/>
	<rect x="407.6" y="446.4" class="st3" width="48.5" height="48.5"/>
	<rect x="407.6" y="564.5" class="st3" width="48.5" height="48.5"/>
	<rect x="407.6" y="682.5" class="st3" width="48.5" height="48.5"/>
	<rect x="499.9" y="442.6" class="st4" width="156.1" height="24.7"/>
	<rect x="499.9" y="478.8" class="st4" width="165.6" height="20.9"/>
	<rect x="503.7" y="560.6" class="st4" width="112.3" height="20.9"/>
	<rect x="504.7" y="596.8" class="st4" width="61.9" height="20.9"/>
	<path class="st5" d="M791.2,761.5c0,27.5-8.7,53.3-23.8,75.4c-6.5,9.6-14.2,18.4-23,26.4c-3.7,3.4-7.5,6.6-11.5,9.7
		c-24.1,18.4-60.6,18.7-84.8,0.4c-1.5-1.1-3-2.3-4.5-3.5c-1.5,1.2-3,2.4-4.5,3.5c-24.2,18.4-60.7,18.1-84.8-0.4
		c-4-3.1-7.9-6.3-11.5-9.7c-18.3-16.8-32.1-37.3-39.8-60c-4.5-13.3-6.9-27.3-6.9-41.9c0-42.8,21-81.4,54.6-108.6
		c25.8-20.9,66.2-21.2,92.1-0.4c0.3,0.2,0.6,0.4,0.8,0.7c0.3-0.2,0.6-0.5,0.8-0.7c18.4-14.8,44.1-18.9,66.8-12.5
		c9.2,2.6,17.9,6.9,25.4,12.9c12,9.7,22.4,20.9,30.8,33.2C782.5,708.2,791.2,734,791.2,761.5z"/>
	<path class="st6" d="M678.8,574c0,0-56.8,25.5-36,67"/>
</g>
</svg>
