<svg width="24" height="23" viewBox="0 0 24 23" fill="none" xmlns="http://www.w3.org/2000/svg">
<path id="Vector" d="M2.96571 20.3486L6.44914 19.1863L7.07657 19.4914C8.52857 20.196 10.188 20.5714 12 20.5714C17.9931 20.5714 22.2857 16.2891 22.2857 11.1429C22.2857 5.97771 18.024 1.71429 12 1.71429C5.976 1.71429 1.71429 5.97771 1.71429 11.1429C1.72442 13.1195 2.37525 15.0395 3.56914 16.6149L4.14857 17.3863L2.96571 20.3469V20.3486ZM1.75371 22.56C1.59858 22.612 1.43182 22.6185 1.27311 22.5787C1.11441 22.539 0.970403 22.4546 0.858098 22.3356C0.745793 22.2167 0.669885 22.068 0.639338 21.9073C0.608792 21.7466 0.624884 21.5805 0.685714 21.4286L2.19943 17.6451C0.782024 15.7728 0.0102545 13.4912 0 11.1429C0 5.46171 4.59771 0 12 0C19.4023 0 24 5.46171 24 11.1429C24 16.824 19.3543 22.2857 12 22.2857C9.86571 22.2857 7.95943 21.8263 6.32914 21.0343L1.752 22.56H1.75371Z" fill="#414042"/>
</svg>
