<svg width="20" height="20" viewBox="0 0 20 20" fill="none" xmlns="http://www.w3.org/2000/svg">
<g id="fluent-mdl2--responses-menu 1">
<path id="Vector" d="M8.125 15C7.08947 15 6.25 14.1605 6.25 13.125C6.25 12.0895 7.08947 11.25 8.125 11.25C9.16053 11.25 10 12.0895 10 13.125C10 14.1605 9.16053 15 8.125 15ZM8.125 12.5C7.77982 12.5 7.5 12.7798 7.5 13.125C7.5 13.4702 7.77982 13.75 8.125 13.75C8.47018 13.75 8.75 13.4702 8.75 13.125C8.75 12.7798 8.47018 12.5 8.125 12.5ZM8.125 5C9.16053 5 10 5.83947 10 6.875C10 7.91053 9.16053 8.75 8.125 8.75C7.08947 8.75 6.25 7.91053 6.25 6.875C6.25 5.83947 7.08947 5 8.125 5ZM8.125 7.5C8.47018 7.5 8.75 7.22018 8.75 6.875C8.75 6.52982 8.47018 6.25 8.125 6.25C7.77982 6.25 7.5 6.52982 7.5 6.875C7.5 7.22018 7.77982 7.5 8.125 7.5ZM13.125 6.25C13.4702 6.25 13.75 6.52982 13.75 6.875C13.75 7.22018 13.4702 7.5 13.125 7.5H11.875C11.5298 7.5 11.25 7.22018 11.25 6.875C11.25 6.52982 11.5298 6.25 11.875 6.25H13.125ZM2.5 2C2.5 0.895431 3.39543 0 4.5 0H15.5C16.6046 0 17.5 0.895431 17.5 2V18C17.5 19.1046 16.6046 20 15.5 20H6.84092C6.2841 20 6.00524 19.3268 6.39897 18.9331C6.51618 18.8158 6.67515 18.75 6.84091 18.75H14.25C15.3546 18.75 16.25 17.8546 16.25 16.75V3.25C16.25 2.14543 15.3546 1.25 14.25 1.25H5.75C4.64543 1.25 3.75 2.14543 3.75 3.25V11.571C3.75 11.7913 3.48363 11.9016 3.32785 11.7458C3.23179 11.6498 3.07623 11.6492 2.97945 11.7445L2.96224 11.7615C2.79055 11.9306 2.5 11.809 2.5 11.5679V2ZM11.875 13.75C11.5298 13.75 11.25 13.4702 11.25 13.125C11.25 12.7798 11.5298 12.5 11.875 12.5H13.125C13.4702 12.5 13.75 12.7798 13.75 13.125C13.75 13.4702 13.4702 13.75 13.125 13.75H11.875ZM7.5 16.875C7.5 17.2202 7.22018 17.5 6.875 17.5H4.0332C3.44579 17.5 3.15161 18.2102 3.56698 18.6256L3.59375 18.6523C3.83645 18.895 3.83645 19.2885 3.59375 19.5312C3.35105 19.774 2.95755 19.774 2.71484 19.5312L1.47281 18.2892C0.691759 17.5082 0.691758 16.2418 1.47281 15.4608L2.71484 14.2188C2.95755 13.976 3.35105 13.976 3.59375 14.2188C3.83645 14.4615 3.83645 14.855 3.59375 15.0977L3.56698 15.1244C3.15161 15.5398 3.44579 16.25 4.0332 16.25H6.875C7.22018 16.25 7.5 16.5298 7.5 16.875Z" fill="#7FC902"/>
</g>
</svg>
