<svg xmlns="http://www.w3.org/2000/svg" width="24.1" height="27.516" viewBox="0 0 24.1 27.516">
  <g id="notebook" transform="translate(-31.983 0.15)">
    <path id="Path_68" data-name="Path 68" d="M177.53,178.328h8.541a.8.8,0,0,0,0-1.595H177.53a.8.8,0,0,0,0,1.595Z" transform="translate(-136.914 -167.338)" fill="#414042" stroke="#414042" stroke-width="0.3"/>
    <path id="Path_69" data-name="Path 69" d="M177.53,242.595h8.541a.8.8,0,0,0,0-1.595H177.53a.8.8,0,1,0,0,1.595Z" transform="translate(-136.914 -228.189)" fill="#414042" stroke="#414042" stroke-width="0.3"/>
    <path id="Path_70" data-name="Path 70" d="M177.53,306.862h3.416a.8.8,0,0,0,0-1.595H177.53a.8.8,0,0,0,0,1.595Z" transform="translate(-136.914 -289.04)" fill="#414042" stroke="#414042" stroke-width="0.3"/>
    <path id="Path_71" data-name="Path 71" d="M55.136,0h-20.5a.8.8,0,0,0-.8.8V4.27H32.93a.8.8,0,0,0,0,1.595h.911V8.541H32.93a.8.8,0,0,0,0,1.595h.911v2.676H32.93a.8.8,0,0,0,0,1.595h.911v2.676H32.93a.8.8,0,0,0,0,1.595h.911v2.676H32.93a.8.8,0,0,0,0,1.595h.911v3.473a.8.8,0,0,0,.8.8h20.5a.8.8,0,0,0,.8-.8V.8A.8.8,0,0,0,55.136,0Zm-.8,25.622h-18.9V22.946h.911a.8.8,0,1,0,0-1.595h-.911V18.676h.911a.8.8,0,1,0,0-1.595h-.911V14.406h.911a.8.8,0,1,0,0-1.595h-.911V10.135h.911a.8.8,0,1,0,0-1.595h-.911V5.865h.911a.8.8,0,1,0,0-1.595h-.911V1.595h18.9Z" fill="#414042" stroke="#414042" stroke-width="0.3"/>
  </g>
</svg>
