<svg width="18" height="18" viewBox="0 0 18 18" fill="none" xmlns="http://www.w3.org/2000/svg">
<path d="M15.4933 2.5069C14.8446 1.85815 13.9821 1.50037 13.0648 1.50037C12.1476 1.50037 11.2851 1.85815 10.6363 2.5069L2.73656 10.4066C2.40281 10.7404 2.1853 11.1627 2.10805 11.6277L1.51556 15.1811C1.45556 15.5411 1.57408 15.9109 1.83133 16.1681C2.04508 16.3819 2.33531 16.4996 2.63306 16.4996C2.69531 16.4996 2.7568 16.4944 2.81905 16.4839L6.37257 15.8914C6.83757 15.8141 7.25982 15.5966 7.59357 15.2628L15.4933 7.36313C16.1421 6.71438 16.4998 5.8511 16.4998 4.9346C16.4998 4.01735 16.1421 3.15565 15.4933 2.5069ZM6.53306 14.2039C6.42206 14.3149 6.28107 14.3876 6.12657 14.4131L3.08006 14.9209L3.58781 11.8744C3.61331 11.7199 3.68606 11.5789 3.79706 11.4679L9.72656 5.53839L12.4626 8.27435L6.53306 14.2039ZM14.4328 6.30341L13.5231 7.21307L10.7871 4.47711L11.6968 3.56735C12.0621 3.2021 12.5488 3.00037 13.0648 3.00037C13.5816 3.00037 14.0676 3.2021 14.4328 3.56735C14.7981 3.9326 14.9998 4.41858 14.9998 4.93533C14.9998 5.45208 14.7981 5.93816 14.4328 6.30341Z" fill="#FFD000"/>
</svg>
