<svg width="30" height="30" viewBox="0 0 30 30" fill="none" xmlns="http://www.w3.org/2000/svg">
<g id="1 - Light / plus-square">
<path id="plus-square-Light" d="M18.75 3.125H11.25C6.77 3.125 3.125 6.77 3.125 11.25V18.75C3.125 23.23 6.77 26.875 11.25 26.875H18.75C23.23 26.875 26.875 23.23 26.875 18.75V11.25C26.875 6.77 23.23 3.125 18.75 3.125ZM25.625 18.75C25.625 22.5413 22.5413 25.625 18.75 25.625H11.25C7.45875 25.625 4.375 22.5413 4.375 18.75V11.25C4.375 7.45875 7.45875 4.375 11.25 4.375H18.75C22.5413 4.375 25.625 7.45875 25.625 11.25V18.75ZM20.625 15C20.625 15.345 20.345 15.625 20 15.625H15.625V20C15.625 20.345 15.345 20.625 15 20.625C14.655 20.625 14.375 20.345 14.375 20V15.625H10C9.655 15.625 9.375 15.345 9.375 15C9.375 14.655 9.655 14.375 10 14.375H14.375V10C14.375 9.655 14.655 9.375 15 9.375C15.345 9.375 15.625 9.655 15.625 10V14.375H20C20.345 14.375 20.625 14.6537 20.625 15Z" fill="#7FC902"/>
</g>
</svg>
