<svg width="24" height="24" viewBox="0 0 24 24" fill="none" xmlns="http://www.w3.org/2000/svg">
<g id="1 - Light / send">
<path id="send-Light" d="M5.15143 5.61362L5.1514 5.61363C3.13112 6.11897 2.23944 7.86312 2.2501 9.35691L2.50009 9.35512L2.2501 9.35691C2.26075 10.8496 3.17606 12.581 5.20277 13.0585L5.20282 13.0585L9.84822 14.152L10.9417 18.7974L10.9417 18.7975C11.4193 20.8242 13.1506 21.7395 14.6433 21.7501H14.6451H14.6452H14.6452H14.6452H14.6453H14.6453H14.6454H14.6454H14.6455H14.6455H14.6456H14.6456H14.6457H14.6457H14.6458H14.6458H14.6459H14.6459H14.646H14.646H14.6461H14.6461H14.6461H14.6462H14.6462H14.6463H14.6463H14.6464H14.6464H14.6465H14.6465H14.6466H14.6466H14.6467H14.6467H14.6468H14.6468H14.6469H14.6469H14.647H14.647H14.647H14.6471H14.6471H14.6472H14.6472H14.6473H14.6473H14.6474H14.6474H14.6475H14.6475H14.6476H14.6476H14.6477H14.6477H14.6478H14.6478H14.6479H14.6479H14.648H14.648H14.6481H14.6481H14.6481H14.6482H14.6482H14.6483H14.6483H14.6484H14.6484H14.6485H14.6485H14.6486H14.6486H14.6487H14.6487H14.6488H14.6488H14.6489H14.6489H14.649H14.649H14.6491H14.6491H14.6492H14.6492H14.6493H14.6493H14.6494H14.6494H14.6495H14.6495H14.6495H14.6496H14.6496H14.6497H14.6497H14.6498H14.6498H14.6499H14.6499H14.65H14.65H14.6501H14.6501H14.6502H14.6502H14.6503H14.6503H14.6504H14.6504H14.6505H14.6505H14.6506H14.6506H14.6507H14.6507H14.6508H14.6508H14.6509H14.6509H14.651H14.651H14.6511H14.6511H14.6511H14.6512H14.6512H14.6513H14.6513H14.6514H14.6514H14.6515H14.6515H14.6516H14.6516H14.6517H14.6517H14.6518H14.6518H14.6519H14.6519H14.652H14.652H14.6521H14.6521H14.6522H14.6522H14.6523H14.6523H14.6524H14.6524H14.6525H14.6525H14.6526H14.6526H14.6527H14.6527H14.6528H14.6528H14.6529H14.6529H14.653H14.653H14.6531H14.6531H14.6531H14.6532H14.6532H14.6533H14.6533H14.6534H14.6534H14.6535H14.6535H14.6536H14.6536H14.6537H14.6537H14.6538H14.6538H14.6539H14.6539H14.654H14.654H14.6541H14.6541H14.6542H14.6542H14.6543H14.6543H14.6544H14.6544H14.6545H14.6545H14.6546H14.6546H14.6547H14.6547H14.6548H14.6548H14.6549H14.6549H14.655H14.655H14.6551H14.6551H14.6551H14.6552H14.6552H14.6553H14.6553H14.6554H14.6554H14.6555H14.6555H14.6556H14.6556H14.6557H14.6557H14.6558H14.6558H14.6559H14.6559H14.656H14.656H14.6561H14.6561H14.6562H14.6562H14.6563H14.6563H14.6564H14.6564H14.6565H14.6565H14.6566H14.6566H14.6567H14.6567H14.6568H14.6568H14.6568H14.6569H14.6569H14.657H14.657H14.6571H14.6571H14.6572H14.6572H14.6573H14.6573H14.6574H14.6574H14.6575H14.6575H14.6576H14.6576H14.6577H14.6577H14.6578H14.6578H14.6579H14.6579H14.658H14.658H14.6581H14.6581H14.6582H14.6582H14.6582H14.6583H14.6583H14.6584H14.6584H14.6585H14.6585H14.6586H14.6586H14.6587H14.6587H14.6588H14.6588H14.6589H14.6589H14.659H14.659H14.6591H14.6591H14.6592H14.6592H14.6593H14.6593H14.6594H14.6594H14.6594H14.6595H14.6595H14.6596H14.6596H14.6597H14.6597H14.6598H14.6598H14.6599H14.6599H14.66H14.66H14.6601H14.6601H14.6602H14.6602H14.6603H14.6603H14.6603H14.6604H14.6604H14.6605H14.6605H14.6606H14.6606H14.6607H14.6607H14.6608H14.6608H14.6609H14.6609H14.661H14.661H14.6611H14.6611H14.6612H14.6612H14.6612H14.6613H14.6613H14.6614H14.6614H14.6615H14.6615H14.6616H14.6616H14.6617H14.6617H14.6618H14.6618H14.6619H14.6619H14.6619H14.662H14.662H14.6621H14.6621H14.6622H14.6622H14.6623H14.6623H14.6624H14.6624H14.6625H14.6625H14.6626H14.6626H14.6626H14.6627H14.6627H14.6628H14.6628H14.6629H14.6629H14.663H14.663H14.6631H14.6631H14.6632H14.6632H14.6632H14.6633H14.6633H14.6634H14.6634H14.6635H14.6635H14.6636H14.6636H14.6637H14.6637H14.6637H14.6638H14.6638H14.6639H14.6639H14.664H14.664H14.6641H14.6641H14.6642H14.6642H14.6642H14.6643H14.6643H14.6644H14.6644H14.6645H14.6645H14.6646H14.6646H14.6647H14.6647H14.6647H14.6648H14.6648H14.6649H14.6649H14.665H14.665H14.6651H14.6651H14.6651H14.6652H14.6652H14.6653H14.6653H14.6654H14.6654H14.6655H14.6655H14.6655H14.6656H14.6656H14.6657H14.6657H14.6658H14.6658H14.6659H14.6659H14.6659H14.666H14.666H14.6661H14.6661H14.6662H14.6662H14.6663H14.6663H14.6663H14.6664H14.6664H14.6665H14.6665H14.6666H14.6666H14.6666H14.6667H14.6667H14.6668H14.6668H14.6669H14.6669H14.6669H14.667H14.667H14.6671H14.6671H14.6672H14.6672H14.6672H14.6673H14.6673H14.6674H14.6674H14.6675H14.6675H14.6675H14.6676H14.6676H14.6677H14.6677H14.6678H14.6678H14.6678H14.6679H14.6679H14.668H14.668H14.6681H14.6681H14.6681H14.6682H14.6682H14.6683H14.6683H14.6683H14.6684H14.6684H14.6685H14.6685H14.6686H14.6686H14.6686H14.6687H14.6687H14.6688H14.6688H14.6688H14.6689H14.6689H14.669H14.669H14.6691H14.6691C16.1564 21.7501 17.8835 20.8573 18.3856 18.8488L21.6636 5.73609C21.906 4.77182 21.6301 3.77457 20.9269 3.07239C20.2247 2.37027 19.2276 2.09428 18.2643 2.33564L5.15143 5.61362ZM12.4015 18.4529L12.4015 18.4529L11.2973 13.7625L15.5299 9.52995L15.3531 9.35317L15.5299 9.52995C15.8225 9.23731 15.8225 8.76199 15.5299 8.46936C15.2373 8.17673 14.7619 8.17673 14.4693 8.46936L10.2368 12.7019L5.54638 11.5978L5.54635 11.5978C4.23108 11.2884 3.7555 10.2005 3.74911 9.34526C3.74271 8.49031 4.20287 7.39617 5.51462 7.06869L5.5147 7.06867L18.6277 3.79065L18.6282 3.79054C18.7344 3.76379 18.8428 3.75112 18.9491 3.75112C19.2884 3.75112 19.6161 3.88453 19.8666 4.13412C20.194 4.46072 20.3214 4.92249 20.2095 5.37173L16.9316 18.4845C16.6059 19.7873 15.5233 20.2501 14.6701 20.2501H14.67H14.67H14.67H14.6699H14.6699H14.6699H14.6698H14.6698H14.6698H14.6697H14.6697H14.6697H14.6696H14.6696H14.6695H14.6695H14.6695H14.6694H14.6694H14.6694H14.6693H14.6693H14.6693H14.6692H14.6692H14.6692H14.6691H14.6691H14.6691H14.669H14.669H14.6689H14.6689H14.6689H14.6688H14.6688H14.6688H14.6687H14.6687H14.6687H14.6686H14.6686H14.6686H14.6685H14.6685H14.6685H14.6684H14.6684H14.6683H14.6683H14.6683H14.6682H14.6682H14.6682H14.6681H14.6681H14.6681H14.668H14.668H14.668H14.6679H14.6679H14.6679H14.6678H14.6678H14.6678H14.6677H14.6677H14.6676H14.6676H14.6676H14.6675H14.6675H14.6675H14.6674H14.6674H14.6674H14.6673H14.6673H14.6673H14.6672H14.6672H14.6672H14.6671H14.6671H14.667H14.667H14.667H14.6669H14.6669H14.6669H14.6668H14.6668H14.6668H14.6667H14.6667H14.6667H14.6666H14.6666H14.6666H14.6665H14.6665H14.6665H14.6664H14.6664H14.6663H14.6663H14.6663H14.6662H14.6662H14.6662H14.6661H14.6661H14.6661H14.666H14.666H14.666H14.6659H14.6659H14.6659H14.6658H14.6658H14.6657H14.6657H14.6657H14.6656H14.6656H14.6656H14.6655H14.6655H14.6655H14.6654H14.6654H14.6654H14.6653H14.6653H14.6653H14.6652H14.6652H14.6651H14.6651H14.6651H14.665H14.665H14.665H14.6649H14.6649H14.6649H14.6648H14.6648H14.6648H14.6647H14.6647H14.6647H14.6646H14.6646H14.6646H14.6645H14.6645H14.6644H14.6644H14.6644H14.6643H14.6643H14.6643H14.6642H14.6642H14.6642H14.6641H14.6641H14.6641H14.664H14.664H14.664H14.6639H14.6639H14.6638H14.6638H14.6638H14.6637H14.6637H14.6637H14.6636H14.6636H14.6636H14.6635H14.6635H14.6635H14.6634H14.6634H14.6634H14.6633H14.6633H14.6632H14.6632H14.6632H14.6631H14.6631H14.6631H14.663H14.663H14.663H14.6629H14.6629H14.6629H14.6628H14.6628H14.6628H14.6627H14.6627H14.6627H14.6626H14.6626H14.6625H14.6625H14.6625H14.6624H14.6624H14.6624H14.6623H14.6623H14.6623H14.6622H14.6622H14.6622H14.6621H14.6621H14.6621H14.662H14.662H14.6619H14.6619H14.6619H14.6618H14.6618H14.6618H14.6617H14.6617H14.6617H14.6616H14.6616H14.6616H14.6615H14.6615H14.6615H14.6614H14.6614H14.6614H14.6613H14.6613H14.6612H14.6612H14.6612H14.6611H14.6611H14.6611H14.661H14.661H14.661H14.6609H14.6609H14.6609H14.6608H14.6608H14.6608H14.6607H14.6607H14.6606H14.6606H14.6606H14.6605H14.6605H14.6605H14.6604H14.6604H14.6604H14.6603H14.6603H14.6603H14.6602H14.6602H14.6602H14.6601H14.6601H14.66H14.66H14.66H14.6599H14.6599H14.6599H14.6598H14.6598H14.6598H14.6597H14.6597H14.6597H14.6596H14.6596H14.6596H14.6595H14.6595H14.6595H14.6594H14.6594H14.6593H14.6593H14.6593H14.6592H14.6592H14.6592H14.6591H14.6591H14.6591H14.659H14.659H14.659H14.6589H14.6589H14.6589H14.6588H14.6588H14.6587H14.6587H14.6587H14.6586H14.6586H14.6586H14.6585H14.6585H14.6585H14.6584H14.6584H14.6584H14.6583H14.6583H14.6583H14.6582H14.6582H14.6581H14.6581H14.6581H14.658H14.658H14.658H14.6579H14.6579H14.6579H14.6578H14.6578H14.6578H14.6577H14.6577H14.6577H14.6576H14.6576H14.6576H14.6575H14.6575H14.6574H14.6574H14.6574H14.6573H14.6573H14.6573H14.6572H14.6572H14.6572H14.6571H14.6571H14.6571H14.657H14.657H14.657H14.6569H14.6569H14.6568H14.6568H14.6568H14.6567H14.6567H14.6567H14.6566H14.6566H14.6566H14.6565H14.6565H14.6565H14.6564H14.6564H14.6564H14.6563H14.6563H14.6562H14.6562H14.6562H14.6561H14.6561H14.6561H14.656H14.656H14.656H14.6559H14.6559H14.6559H14.6558H14.6558H14.6558H14.6557H14.6557H14.6557H14.6556H14.6556H14.6555H14.6555H14.6555H14.6554H14.6554H14.6554H14.6553H14.6553H14.6553H14.6552H14.6552H14.6552H14.6551H14.6551H14.6551H14.655H14.655H14.6549H14.6549H14.6549H14.6548H14.6548H14.6548H14.6547H14.6547H14.6547H14.6546H14.6546H14.6546H14.6545H14.6545H14.6545H14.6544H14.6544H14.6544H14.6543H14.6543H14.6542H14.6542H14.6542H14.6541H14.6541H14.6541H14.654H14.654H14.654H14.6539H14.6539H14.6539H14.6538H14.6538H14.6538H14.6537H14.6537H14.6536H14.6536H14.6536H14.6535H14.6535H14.6535H14.6534H14.6534H14.6534H14.6533H14.6533H14.6533H14.6532H14.6532H14.6532H14.6531H14.6531H14.6531H14.653H14.653H14.6529H14.6529H14.6529H14.6528H14.6528C13.7981 20.2443 12.7108 19.7679 12.4015 18.4529Z" fill="#B2DA6C" stroke="#B2DA6C" stroke-width="0.5"/>
</g>
</svg>
