<svg width="20" height="23" viewBox="0 0 20 23" fill="none" xmlns="http://www.w3.org/2000/svg">
<path d="M18.8221 7.29379L11.5738 0.608786C11.1432 0.217071 10.5821 0 10 0C9.41792 0 8.85675 0.217071 8.42619 0.608786L1.17787 7.29379C0.459558 8.00621 0.0385622 8.9648 0 9.97575V20.0028C0.00125494 20.5914 0.235852 21.1556 0.652369 21.5716C1.06889 21.9876 1.63334 22.2214 2.22201 22.2219H8.90606V15.6005H11.1167V22.2229H17.7742C18.0661 22.2234 18.3552 22.1664 18.625 22.0551C18.8949 21.9439 19.1401 21.7805 19.3468 21.5744C19.5535 21.3684 19.7176 21.1236 19.8297 20.8541C19.9417 20.5846 19.9996 20.2956 20 20.0037V9.97481C19.962 8.96399 19.5409 8.00548 18.8221 7.29379ZM17.7789 20.0018H13.3406V13.3785H6.685V20.0009C3.71031 20.0009 2.22296 20.0009 2.22296 20.0009V9.97481C2.26151 9.58507 2.42368 9.21788 2.68576 8.92687L9.93409 2.24186C9.95402 2.229 9.97723 2.22216 10.0009 2.22216C10.0247 2.22216 10.0479 2.229 10.0678 2.24186L17.3161 8.92687C17.5786 9.21766 17.7408 9.58497 17.7789 9.97481C17.7783 16.6582 17.7767 19.9999 17.7742 19.9999L17.7789 20.0018Z" fill="white"/>
</svg>
