<svg width="55" height="58" viewBox="0 0 55 58" fill="none" xmlns="http://www.w3.org/2000/svg">
<g id="Group 1">
<path id="Vector" d="M14.6656 47.8127C14.6656 47.8127 16.4889 49.4707 15.9908 51.7221L16.3674 52.1336L17.9209 49.5393L16.4652 47.2461L14.6626 47.8127H14.6656Z" fill="#C9822D"/>
<path id="Vector_2" d="M31.5042 44.8025C31.5042 44.8025 32.2355 47.2155 33.8481 47.3907C35.3107 47.5506 35.8982 46.736 35.8982 46.736L36.6565 46.8282L34.957 50.5046L29.3252 47.6551L31.5012 44.8056L31.5042 44.8025Z" fill="#C9822D"/>
<path id="Vector_3" d="M19.0211 23.623C19.0211 23.623 21.1792 25.5671 21.1792 25.9869C21.1792 26.4067 18.7355 25.0349 18.7355 25.0349L19.0211 23.623Z" fill="black"/>
<path id="Vector_4" d="M54.5774 44.2271C54.409 44.5629 44.368 64.0852 22.6231 55.7805C20.1764 54.8462 18.0359 53.7256 16.1588 52.4769C16.6701 50.7091 15.7362 48.468 13.3446 48.468C12.7291 48.468 12.2054 48.6176 11.7828 48.871C6.57399 43.5951 4.48555 37.162 3.69856 32.0784C2.92382 27.0833 3.40765 23.3889 3.40765 23.3889L9.47698 15.7772L14.9645 8.89224L34.5505 2.44385C28.2668 5.52454 24.4513 9.35327 22.1883 13.1851C17.0101 21.9539 19.9437 30.7624 19.9437 30.7624L22.3873 32.7287L21.4778 34.2187C21.7779 34.756 22.0842 35.2751 22.3934 35.7697C21.8392 36.304 20.7643 37.2871 19.7416 37.9375C19.2792 38.2306 18.826 38.4565 18.434 38.542C18.434 38.542 18.9852 38.5664 19.8824 38.3466C20.7184 38.1451 21.8576 37.7329 23.1192 36.8933C25.716 40.719 28.6067 43.2562 31.5556 44.8835C31.5373 46.4224 32.5172 47.9764 34.5107 47.9764C35.561 47.9764 36.3327 47.5368 36.8227 46.8956C46.0032 49.0084 54.3662 44.3492 54.5774 44.2302V44.2271Z" fill="#FFB54D"/>
<path id="Vector_5" opacity="0.09" d="M22.8085 35.3388C22.2421 35.8643 21.1438 36.8314 20.0987 37.4711C17.902 31.1402 17.6673 23.9984 17.6673 23.9984C17.6673 23.9984 16.5314 25.8845 15.9932 25.8334C15.455 25.7853 15.5739 24.6201 15.5739 24.6201L13.2052 24.9054C11.1806 28.5423 9.79438 27.4852 9.79438 27.4852C7.57581 31.0921 5.68893 30.0079 5.68893 30.0079C5.11004 30.5786 4.22449 31.2993 3.70818 31.7048C2.9165 26.7914 3.41091 23.1575 3.41091 23.1575L9.61289 15.6703L22.4049 13.0334L22.5989 13.1235C17.3075 21.7489 20.3052 30.4134 20.3052 30.4134L22.8023 32.3475L21.8729 33.8131C22.1796 34.3417 22.4925 34.8522 22.8085 35.3388Z" fill="black"/>
<path id="Vector_6" opacity="0.09" d="M54.5773 44.098C47.8254 51.0532 32.1745 56.2093 20.3646 38.1305C21.189 37.9262 22.3123 37.5081 23.5564 36.6565C26.1171 40.5367 28.9676 43.1101 31.8755 44.7607C31.8574 46.3214 32.8237 47.8977 34.7895 47.8977C35.8253 47.8977 36.5862 47.4517 37.0694 46.8014C46.1223 48.9444 54.3689 44.2187 54.5773 44.098Z" fill="black"/>
<path id="Vector_7" d="M35.9944 15.8857L35.9507 18.3499C35.9507 18.4812 36.0119 18.6066 36.1167 18.6824L38.1178 20.1172C38.3887 20.3096 38.3188 20.7296 38.0013 20.8258L35.6478 21.5461C35.5225 21.584 35.4235 21.6832 35.3827 21.8086L34.64 24.1591C34.541 24.474 34.1215 24.5382 33.9322 24.267L32.5224 22.246C32.4467 22.1381 32.3244 22.074 32.1904 22.074L29.7291 22.0914C29.3971 22.0914 29.2078 21.7153 29.4058 21.4499L30.8884 19.4814C30.967 19.3764 30.9903 19.2394 30.9496 19.114L30.1719 16.7752C30.067 16.4602 30.367 16.1628 30.6816 16.2707L33.0089 17.0755C33.1341 17.1193 33.271 17.0989 33.3759 17.0201L35.3565 15.5562C35.6245 15.3579 36.0002 15.5562 35.9944 15.8857Z" fill="#C8FF6A"/>
<path id="Vector_8" d="M41.7925 28.0624L43.3848 31.6108C43.4689 31.8009 43.64 31.9336 43.8372 31.9698L47.5496 32.6186C48.0484 32.7061 48.2369 33.3518 47.8657 33.7108L45.1133 36.3812C44.9654 36.523 44.8958 36.7342 44.9248 36.9394L45.4788 40.8136C45.5542 41.3356 45.0205 41.7188 44.5768 41.4623L41.285 39.5644C41.1081 39.4618 40.8963 39.4588 40.7165 39.5524L37.3464 41.2994C36.894 41.5347 36.3777 41.1274 36.4734 40.6084L37.1898 36.7644C37.2275 36.5592 37.1666 36.348 37.0245 36.1971L34.3881 33.4031C34.0343 33.0259 34.246 32.3893 34.7507 32.3259L38.4862 31.8492C38.6863 31.825 38.8604 31.6983 38.9532 31.5112L40.6933 28.0383C40.9283 27.5706 41.575 27.5857 41.7896 28.0624H41.7925Z" fill="#C8FF6A"/>
<path id="Vector_9" d="M35.9944 15.0713L35.9507 17.5355C35.9507 17.6667 36.0119 17.7921 36.1167 17.8679L38.1178 19.3027C38.3887 19.4952 38.3188 19.9151 38.0013 20.0114L35.6478 20.7317C35.5225 20.7696 35.4235 20.8687 35.3827 20.9941L34.64 23.3446C34.541 23.6596 34.1215 23.7237 33.9322 23.4525L32.5224 21.4316C32.4467 21.3237 32.3244 21.2595 32.1904 21.2595L29.7291 21.277C29.3971 21.277 29.2078 20.9008 29.4058 20.6354L30.8884 18.667C30.967 18.562 30.9903 18.4249 30.9496 18.2995L30.1719 15.9607C30.067 15.6458 30.367 15.3483 30.6816 15.4562L33.0089 16.2611C33.1341 16.3048 33.271 16.2844 33.3759 16.2057L35.3565 14.7417C35.6245 14.5434 36.0002 14.7417 35.9944 15.0713Z" fill="#ADF631"/>
<path id="Vector_10" d="M41.4238 27.2477L43.1097 30.7961C43.1988 30.9862 43.38 31.1189 43.5888 31.1551L47.5195 31.8039C48.0477 31.8914 48.2473 32.5371 47.8542 32.8961L44.94 35.5665C44.7834 35.7083 44.7097 35.9195 44.7404 36.1247L45.3269 39.9989C45.4068 40.5209 44.8417 40.9041 44.3719 40.6476L40.8864 38.7497C40.6991 38.6471 40.4749 38.6441 40.2845 38.7377L36.7162 40.4847C36.2371 40.72 35.6905 40.3127 35.7918 39.7937L36.5504 35.9497C36.5903 35.7445 36.5258 35.5333 36.3753 35.3824L33.5839 32.5884C33.2092 32.2112 33.4334 31.5746 33.9677 31.5112L37.923 31.0345C38.1349 31.0103 38.3192 30.8836 38.4174 30.6965L40.26 27.2236C40.5087 26.7559 41.1935 26.771 41.4208 27.2477H41.4238Z" fill="#ADF631"/>
<path id="Vector_11" d="M3.21307 27.5721C3.21307 27.5721 1.83939 31.302 2.76344 31.7387C3.6875 32.1754 6.38524 27.7157 6.38524 27.7157C6.38524 27.7157 5.75267 29.2232 6.90619 29.5163C8.05971 29.8065 10.1156 25.9958 10.1156 25.9958C10.1156 25.9958 9.8148 26.8423 10.7482 26.9739C11.6815 27.1055 13.0335 24.4375 13.0335 24.4375H5.07048L3.21617 27.5721H3.21307Z" fill="black"/>
<path id="Vector_12" d="M15.7956 23.3411C15.7956 23.3411 15.1802 25.0662 15.6602 25.2437C16.1402 25.4212 17.9208 22.8086 17.9208 22.8086L15.7956 23.3386V23.3411Z" fill="black"/>
<path id="Vector_13" d="M37.5312 8.56585C37.2577 8.68593 37.4553 7.52203 37.2 6.42586C37.0997 5.97939 36.9204 5.55139 36.6104 5.21885C36.5192 5.12032 36.4159 5.03718 36.3064 4.9602C35.1303 4.14732 33.094 4.55992 33.094 4.55992C33.094 4.55992 32.2218 4.87707 30.8511 5.71459C30.2828 6.06253 29.6263 6.50284 28.9121 7.05092C28.9121 7.05092 28.8939 7.06324 28.8605 7.08787C27.9183 7.81146 26.8698 8.72288 25.7879 9.85292C24.2044 11.4972 22.539 13.6033 20.9799 16.2821C20.6182 16.9041 20.2657 17.5538 19.9162 18.2343L15.7434 19.1765L14.6128 19.432L8.35209 20.8423L3.25842 21.9939C3.25842 21.9939 3.43773 20.1618 4.36772 17.5661C4.7537 16.4761 5.27948 15.2475 5.97849 13.9605C6.90848 12.2577 8.14542 10.4564 9.78962 8.74136C11.0326 7.44813 12.5066 6.20724 14.2602 5.09568H14.2633C14.7404 4.79701 15.2328 4.5045 15.7494 4.2243C16.953 3.57152 18.1443 3.01728 19.3174 2.54002C23.3079 0.929643 27.0339 0.27995 30.0579 0.0767282C32.5865 -0.0926231 34.6167 0.0490162 35.9053 0.206051C36.8809 0.323057 37.4249 0.449301 37.4249 0.449301C37.4249 0.449301 38.0175 1.2745 38.2363 3.30364C38.2454 3.40525 38.2546 3.5161 38.2637 3.62695C38.3974 5.64377 37.8929 8.41497 37.5343 8.56893L37.5312 8.56585Z" fill="#7FC902"/>
<path id="Vector_14" opacity="0.09" d="M11.4042 36.658C11.4042 38.0061 10.3095 39.1002 8.96049 39.1002C8.83334 39.1002 8.71239 39.0909 8.59144 39.0692C7.41918 38.8925 6.51672 37.876 6.51672 36.6549C6.51672 35.4338 7.41918 34.4234 8.59144 34.2436C8.71239 34.225 8.83334 34.2126 8.96049 34.2126C10.3095 34.2126 11.4042 35.3067 11.4042 36.6518V36.658Z" fill="black"/>
<path id="Vector_15" opacity="0.09" d="M10.5897 36.6548C10.5897 37.8916 9.70384 38.9212 8.55319 39.1002C7.40254 38.9212 6.51672 37.8916 6.51672 36.6548C6.51672 35.418 7.40254 34.3947 8.55319 34.2126C9.70384 34.3916 10.5897 35.4212 10.5897 36.6548Z" fill="black"/>
<path id="Vector_16" opacity="0.09" d="M26.0668 44.8023C26.0668 45.7033 25.3355 46.4314 24.4376 46.4314C24.3821 46.4314 24.3235 46.4284 24.271 46.4222H24.2679C23.4472 46.3389 22.8085 45.6446 22.8085 44.8023C22.8085 43.9599 23.4472 43.2657 24.2679 43.1824H24.271C24.3235 43.1762 24.3821 43.1731 24.4376 43.1731C25.3386 43.1731 26.0668 43.9044 26.0668 44.8023Z" fill="black"/>
<path id="Vector_17" opacity="0.09" d="M26.0668 44.8023C26.0668 45.6494 25.3538 46.3477 24.4411 46.4314H24.4376C23.5215 46.3477 22.8085 45.6494 22.8085 44.8023C22.8085 43.9551 23.5215 43.2569 24.4376 43.1731H24.4411C25.3538 43.2569 26.0668 43.9551 26.0668 44.8023Z" fill="black"/>
<path id="Vector_18" opacity="0.09" d="M30.9543 54.167C30.9543 54.8442 30.4071 55.392 29.7308 55.392C29.6878 55.392 29.6448 55.392 29.6048 55.3859C28.99 55.3243 28.5105 54.8041 28.5105 54.1701C28.5105 53.5361 28.99 53.016 29.6048 52.9544C29.6448 52.9482 29.6878 52.9482 29.7308 52.9482C30.4071 52.9482 30.9543 53.4961 30.9543 54.1732V54.167Z" fill="black"/>
<path id="Vector_19" opacity="0.09" d="M30.1397 54.1701C30.1397 54.8074 29.7822 55.3301 29.3262 55.392C28.868 55.3301 28.5105 54.8074 28.5105 54.1701C28.5105 53.5329 28.868 53.0101 29.3262 52.9482C29.7822 53.0101 30.1397 53.5329 30.1397 54.1701Z" fill="black"/>
<g id="Group">
<path id="Vector_20" d="M8.39319 20.9764V21.0343L3.28162 22.1742C3.28162 22.1742 3.46156 20.3607 4.39482 17.7913C4.62966 17.7395 4.8767 17.709 5.12678 17.709C6.93231 17.709 8.39319 19.172 8.39319 20.9733V20.9764Z" fill="#ADF631"/>
<path id="Vector_21" d="M10.7172 11.2871C10.7172 13.0915 9.25324 14.5576 7.45077 14.5576C6.93229 14.5576 6.44736 14.4387 6.01123 14.2254C6.94449 12.5398 8.18579 10.7568 9.83576 9.05908C10.3847 9.64124 10.7172 10.4246 10.7172 11.2871Z" fill="#ADF631"/>
<path id="Vector_22" d="M21.0624 16.5205C20.6994 17.1361 20.3456 17.7793 19.9949 18.4529L15.8074 19.3855C15.0358 18.7912 14.5387 17.8555 14.5387 16.8039C14.5387 14.9995 16.0026 13.5396 17.8051 13.5396C19.5161 13.5396 20.919 14.8502 21.0593 16.5235L21.0624 16.5205Z" fill="#ADF631"/>
<path id="Vector_23" d="M20.855 5.63601C20.855 7.4404 19.391 8.90037 17.5885 8.90037C15.7861 8.90037 14.3221 7.43735 14.3221 5.63601C14.3221 5.572 14.3252 5.51104 14.3252 5.44704H14.3282C14.8071 5.15139 15.3012 4.86183 15.8196 4.58447C17.0274 3.9383 18.2229 3.38967 19.4002 2.91724C20.2755 3.4994 20.855 4.49608 20.855 5.63296V5.63601Z" fill="#ADF631"/>
<path id="Vector_24" d="M30.9713 6.06283C29.6324 6.87358 27.8208 8.17201 25.8872 10.1593C25.3901 9.58626 25.0912 8.83951 25.0912 8.02266C25.0912 6.21827 26.5551 4.7583 28.3576 4.7583C29.425 4.7583 30.3736 5.27341 30.9713 6.06587V6.06283Z" fill="#ADF631"/>
<path id="Vector_25" d="M36.0432 0.607042C35.5004 1.65859 34.4055 2.37181 33.1398 2.37181C31.8741 2.37181 30.6907 1.59763 30.1753 0.479028C32.7128 0.31139 34.7501 0.451596 36.0432 0.607042Z" fill="#ADF631"/>
<path id="Vector_26" d="M37.6781 8.8822C37.2968 9.04679 37.8397 6.71206 36.7509 5.56907C36.6594 5.47154 36.5557 5.38925 36.4459 5.31305C36.9034 4.65469 37.5988 4.17006 38.41 3.99023C38.5442 5.98664 38.038 8.7298 37.6781 8.8822Z" fill="#ADF631"/>
</g>
<path id="Vector_27" opacity="0.2" d="M29.3251 7.3313C28.3477 8.04754 27.26 8.9497 26.1376 10.0683C24.4949 11.6958 22.7671 13.7805 21.1497 16.4322C20.7745 17.0478 20.4088 17.6909 20.0462 18.3645L15.7173 19.2971L14.5444 19.5501L11.4042 19.4312C11.4042 19.4312 28.7954 7.66047 29.3251 7.33435V7.3313Z" fill="black"/>
<path id="Vector_28" d="M20.9899 23.6523L19.3395 24.66L19.3515 23.6523C19.3515 23.6523 12.4066 23.5902 3.78405 27.4793L3.45277 28.5106L3.41964 28.4959L2.50408 28.0289C2.50408 28.0289 2.36856 24.7546 2.50408 23.4395L3.56119 22.3786C3.56119 22.3786 12.6385 18.3211 20.0683 18.7703L21.1616 19.5594C21.1616 19.5594 21.261 22.4554 20.9899 23.6523Z" fill="#73B800"/>
<path id="Vector_29" d="M3.25842 21.9939C3.25842 21.9939 9.98234 18.9466 20.3648 18.7356" stroke="#2E3B60" stroke-width="0.25" stroke-linecap="round" stroke-linejoin="round"/>
<path id="Vector_30" opacity="0.2" d="M37.4422 6.51665C37.3434 6.05899 37.1668 5.61721 36.8615 5.27396C36.7717 5.17226 36.6699 5.08645 36.5621 5.00699C35.4037 4.16794 33.3981 4.59382 33.3981 4.59382C33.3981 4.59382 35.7838 3.30664 36.4394 3.25897C37.0949 3.21129 37.5918 5.73481 37.4452 6.51665H37.4422Z" fill="black"/>
<path id="Vector_31" opacity="0.2" d="M20.3646 23.623L19.55 24.4376L19.5595 23.623H20.3646Z" fill="black"/>
<path id="Vector_32" opacity="0.2" d="M3.25844 27.696L2.95366 28.5106L2.92318 28.4966L2.44385 28.0392L3.25844 27.696Z" fill="black"/>
<path id="Vector_33" d="M17.0784 31.663C17.1596 32.1074 17.058 32.5185 16.8481 32.5766C16.6381 32.6348 16.401 32.3192 16.3197 31.8748C16.2384 31.4305 16.34 31.0194 16.55 30.9612C16.76 30.9031 16.9971 31.2187 17.0784 31.663Z" fill="#6D4D2E"/>
<path id="Vector_34" d="M16.2454 29.3758C16.3945 29.4858 16.1724 29.7325 15.7464 29.9295C15.3235 30.1264 14.858 30.1974 14.709 30.0892C14.5599 29.9792 14.782 29.7325 15.2079 29.5355C15.6339 29.3385 16.0963 29.2676 16.2454 29.3758Z" fill="#6D4D2E"/>
<path id="Vector_35" d="M27.7861 29.4152L28.5105 29.3251L27.7861 29.2382L27.6959 28.5105L27.609 29.2382L26.8813 29.3251L27.609 29.4152L27.6959 30.1397L27.7861 29.4152Z" fill="#ADF631"/>
<path id="Vector_36" d="M25.704 27.7849L26.0668 27.6959L25.704 27.607L25.6595 26.8813L25.6174 27.607L25.2522 27.6959L25.6174 27.7849L25.6595 28.5105L25.704 27.7849Z" fill="#ADF631"/>
<path id="Vector_37" d="M34.2996 11.4926L35.0272 11.4026L34.2996 11.3158L34.2127 10.5896L34.1225 11.3158L33.3981 11.4026L34.1225 11.4926L34.2127 12.2188L34.2996 11.4926Z" fill="#ADF631"/>
<path id="Vector_38" d="M13.1218 50.5915L13.848 50.5045L13.1218 50.4176L13.0351 49.6899L12.9451 50.4176L12.2189 50.5045L12.9451 50.5915L13.0351 51.3191L13.1218 50.5915Z" fill="#ADF631"/>
<path id="Vector_39" d="M0.90474 18.0112L1.62918 17.921L0.90474 17.8341L0.814588 17.1064L0.727655 17.8341L0 17.921L0.727655 18.0112L0.814588 18.7356L0.90474 18.0112Z" fill="#ADF631"/>
<path id="Vector_40" d="M25.3412 15.9288L26.0668 15.8843L25.3412 15.8422L25.2522 15.4771L25.1633 15.8422L24.4376 15.8843L25.1633 15.9288L25.2522 16.2916L25.3412 15.9288Z" fill="#ADF631"/>
<path id="Vector_41" d="M30.5915 37.9214L30.9544 37.8794L30.5915 37.8351L30.5471 37.4709L30.5026 37.8351L30.1398 37.8794L30.5026 37.9214L30.5471 38.2855L30.5915 37.9214Z" fill="#ADF631"/>
</g>
</svg>
