<svg width="16" height="16" viewBox="0 0 16 16" fill="none" xmlns="http://www.w3.org/2000/svg">
<path d="M15.4992 5.75146C15.4992 5.67046 15.4865 5.58947 15.461 5.51297L14.645 3.06421C14.1335 1.53046 12.704 0.5 11.0877 0.5H4.9122C3.29595 0.5 1.86572 1.53046 1.35497 3.06421L0.538956 5.51297C0.513456 5.59022 0.500732 5.67046 0.500732 5.75146C0.502232 6.50521 0.790982 7.18628 1.25073 7.71353V12.5C1.25073 14.1545 2.59623 15.5 4.25073 15.5H7.27097V12.5C7.27097 12.086 7.60772 11.75 8.02097 11.75C8.43422 11.75 8.77097 12.086 8.77097 12.5V15.5H11.7492C13.4037 15.5 14.7492 14.1545 14.7492 12.5V7.71353C15.209 7.18628 15.4977 6.50521 15.4992 5.75146ZM2.77696 3.539C3.08371 2.618 3.94172 2 4.91147 2H11.087C12.0567 2 12.9147 2.618 13.2215 3.539L13.9955 5.86023C13.94 6.64848 13.3055 7.25073 12.5075 7.25073C11.8347 7.25073 11.1537 6.81203 10.958 6.25253C10.8522 5.95253 10.5687 5.75073 10.25 5.75073H10.247C9.92748 5.75223 9.64322 5.95548 9.54047 6.25848C9.35072 6.81498 8.67345 7.25073 7.99995 7.25073C7.32645 7.25073 6.64999 6.81498 6.45949 6.25848C6.35599 5.95623 6.07248 5.75223 5.75298 5.75073H5.74995C5.4312 5.75073 5.14773 5.95253 5.04198 6.25253C4.84623 6.81203 4.16524 7.25073 3.49249 7.25073C2.69374 7.25073 2.05921 6.64848 2.00371 5.86023L2.77696 3.539ZM11.7492 14H10.2695V12.5C10.2695 11.2595 9.25996 10.25 8.01945 10.25C6.77895 10.25 5.76945 11.2595 5.76945 12.5V14H4.24922C3.42197 14 2.74922 13.3273 2.74922 12.5V8.64499C2.98847 8.70724 3.23371 8.75 3.49171 8.75C4.33996 8.75 5.16197 8.39754 5.74547 7.83429C6.32747 8.39754 7.14799 8.75 7.99849 8.75C8.84899 8.75 9.67022 8.39754 10.2515 7.83429C10.8357 8.39754 11.6577 8.75 12.506 8.75C12.764 8.75 13.0092 8.70724 13.2485 8.64499V12.5C13.2492 13.3273 12.5765 14 11.7492 14Z" fill="#7FC902"/>
</svg>
