<svg xmlns="http://www.w3.org/2000/svg" width="25.521" height="19.85" viewBox="0 0 25.521 19.85">
  <path id="Icon_awesome-images" data-name="Icon awesome-images" d="M21.268,19.264v.709A2.127,2.127,0,0,1,19.141,22.1H2.127A2.127,2.127,0,0,1,0,19.973V8.63A2.127,2.127,0,0,1,2.127,6.5h.709V15.72A3.549,3.549,0,0,0,6.38,19.264Zm4.254-3.545V4.377A2.127,2.127,0,0,0,23.395,2.25H6.38A2.127,2.127,0,0,0,4.254,4.377V15.72A2.127,2.127,0,0,0,6.38,17.846H23.395A2.127,2.127,0,0,0,25.521,15.72ZM11.343,6.5A2.127,2.127,0,1,1,9.216,4.377,2.127,2.127,0,0,1,11.343,6.5Zm-4.254,6.38,2.46-2.46a.532.532,0,0,1,.752,0l1.751,1.751,6-6a.532.532,0,0,1,.752,0l3.878,3.878v4.963H7.089Z" transform="translate(0 -2.25)" fill="#7fc902"/>
</svg>
