<svg width="18" height="22" viewBox="0 0 18 22" fill="none" xmlns="http://www.w3.org/2000/svg">
<path d="M14.4845 19.3332L14.4846 19.3331C14.8164 18.9622 14.9999 18.4816 14.9999 17.9788V16.9678C14.9999 15.5649 14.0705 14.3575 12.7461 14.0252L12.7456 14.0251C12.5531 13.9764 12.3474 14.004 12.1841 14.0964L12.1826 14.0972C10.2059 15.1973 7.78792 15.1932 5.8234 14.1002L5.82102 14.0988C5.65131 14.002 5.44642 13.9742 5.25708 14.0236L5.25496 14.0242L5.25496 14.0242C3.93026 14.3574 2.99994 15.565 2.99994 16.9678V17.9788C2.99994 18.4827 3.1836 18.9631 3.51511 19.3329L3.51543 19.3332C3.88307 19.7448 3.84875 20.3766 3.43777 20.7449L3.43751 20.7451C3.02492 21.1138 2.39294 21.0786 2.02563 20.6674C1.36433 19.9292 1.00098 18.9738 1.00098 17.9788V16.9678C1.00098 14.6536 2.54742 12.6441 4.76648 12.0854L14.4845 19.3332ZM14.4845 19.3332C14.1173 19.7444 14.1496 20.3764 14.5623 20.7451C14.753 20.9157 14.992 20.9998 15.2289 20.9998C15.5026 20.9998 15.7764 20.888 15.974 20.6667C16.6356 19.9294 16.999 18.9738 16.999 17.9778V16.9668M14.4845 19.3332L16.999 16.9668M16.999 16.9668C16.999 14.6517 15.4525 12.6418 13.2359 12.0863C12.5506 11.9141 11.8077 12.0106 11.2033 12.3549C9.83743 13.1141 8.15846 13.1111 6.80468 12.358M16.999 16.9668L6.80468 12.358M6.80468 12.358C6.19415 12.0102 5.45132 11.9119 4.76693 12.0853L6.80468 12.358ZM8.99896 11.9998C12.032 11.9998 14.499 9.53283 14.499 6.49976C14.499 3.46668 12.032 0.999756 8.99896 0.999756C5.96589 0.999756 3.49896 3.46668 3.49896 6.49976C3.49896 9.53283 5.96589 11.9998 8.99896 11.9998ZM8.99896 2.99976C10.9289 2.99976 12.499 4.56983 12.499 6.49976C12.499 8.42968 10.9289 9.99976 8.99896 9.99976C7.06903 9.99976 5.49896 8.42968 5.49896 6.49976C5.49896 4.56983 7.06903 2.99976 8.99896 2.99976Z" fill="#B2DA6C" stroke="#B2DA6C" stroke-width="0.5"/>
</svg>
