<svg width="21" height="21" viewBox="0 0 21 21" fill="none" xmlns="http://www.w3.org/2000/svg">
<g id="vuesax/linear/weight">
<g id="weight">
<g id="Group 1">
<path id="Vector" d="M17.3891 11.3031C18.9362 9.88315 18.5243 8.65788 17.548 7.59422L13.9981 3.72637C13.0218 2.66271 11.8363 2.14744 10.2892 3.56743C8.74201 4.98741 9.15397 6.21267 10.1302 7.27633L13.6802 11.1442C14.6564 12.2078 15.8419 12.7231 17.3891 11.3031Z" stroke="white" stroke-width="2" stroke-linecap="round" stroke-linejoin="round"/>
<path id="Vector_2" d="M10.7106 17.4326C9.16347 18.8526 7.97794 18.3374 7.0017 17.2737L3.45174 13.4058C2.4755 12.3422 2.06354 11.1169 3.61068 9.69694C5.15782 8.27696 6.34335 8.79223 7.31959 9.85589L10.8696 13.7237C11.8458 14.7874 12.2577 16.0127 10.7106 17.4326Z" stroke="white" stroke-width="2" stroke-linecap="round" stroke-linejoin="round"/>
<path id="Vector_3" d="M9.0946 11.7898L11.9052 9.21016" stroke="white" stroke-width="2" stroke-linecap="round" stroke-linejoin="round"/>
<path id="Vector_4" d="M18.7477 5.89924L15.7894 2.67603" stroke="white" stroke-width="2" stroke-linecap="round" stroke-linejoin="round"/>
<path id="Vector_5" d="M5.21025 18.324L2.25195 15.1008" stroke="white" stroke-width="2" stroke-linecap="round" stroke-linejoin="round"/>
</g>
</g>
</g>
</svg>
